<svg width="14" height="22" viewBox="0 0 14 22" fill="none" xmlns="http://www.w3.org/2000/svg">
<path d="M13.8749 10.7187C13.8751 10.8467 13.8452 10.9734 13.7871 11.0917C13.7289 11.2099 13.6437 11.3173 13.5361 11.4076L1.97377 21.1519C1.52197 21.5327 0.79036 21.5327 0.33885 21.1519C-0.112661 20.7712 -0.11295 20.1546 0.33885 19.7741L11.0838 10.7187L0.338849 1.66332C-0.112951 1.28256 -0.112951 0.665993 0.338849 0.285479C0.790648 -0.0950375 1.52226 -0.0952817 1.97377 0.285479L13.5361 10.0298C13.6437 10.1201 13.7289 10.2275 13.7871 10.3458C13.8452 10.464 13.8751 10.5907 13.8749 10.7187Z" fill="white" fill-opacity="0.9"/>
</svg>
