<svg width="1204" height="875" viewBox="0 0 1204 875" fill="none" xmlns="http://www.w3.org/2000/svg">
<g filter="url(#filter0_b_1_960)">
<path fill-rule="evenodd" clip-rule="evenodd" d="M1093.61 2C1106.89 2 1116 21.219 1116 34.5C1116 60.1812 1136.82 81 1162.5 81H1169.5C1182.78 81 1202 90.1112 1202 103.392V848C1202 861.807 1190.81 873 1177 873H27C13.1929 873 2 861.807 2 848V27C2 13.1929 13.1929 2 27 2H1093.61Z" fill="black" fill-opacity="0.44"/>
<path d="M1162.5 79.5C1137.65 79.5 1117.5 59.3528 1117.5 34.5H1114.5C1114.5 61.0097 1135.99 82.5 1162.5 82.5V79.5ZM1169.5 79.5H1162.5V82.5H1169.5V79.5ZM1200.5 103.392V848H1203.5V103.392H1200.5ZM1200.5 848C1200.5 860.979 1189.98 871.5 1177 871.5V874.5C1191.64 874.5 1203.5 862.636 1203.5 848H1200.5ZM1177 871.5H27V874.5H1177V871.5ZM27 871.5C14.0213 871.5 3.5 860.979 3.5 848H0.5C0.5 862.636 12.3644 874.5 27 874.5V871.5ZM3.5 848V27H0.5V848H3.5ZM3.5 27C3.5 14.0213 14.0213 3.5 27 3.5V0.5C12.3645 0.5 0.5 12.3644 0.5 27H3.5ZM27 3.5H1093.61V0.5H27V3.5ZM1169.5 82.5C1175.85 82.5 1183.71 84.6932 1189.95 88.4968C1196.24 92.3265 1200.5 97.5275 1200.5 103.392H1203.5C1203.5 95.9759 1198.15 89.9808 1191.51 85.9347C1184.83 81.8624 1176.43 79.5 1169.5 79.5V82.5ZM1117.5 34.5C1117.5 27.5677 1115.14 19.1747 1111.07 12.4893C1107.02 5.84675 1101.02 0.5 1093.61 0.5V3.5C1099.47 3.5 1104.67 7.76274 1108.5 14.0499C1112.31 20.2943 1114.5 28.1513 1114.5 34.5H1117.5Z" fill="#53ACFF"/>
</g>
<defs>
<filter id="filter0_b_1_960" x="-2.5" y="-2.5" width="1209" height="880" filterUnits="userSpaceOnUse" color-interpolation-filters="sRGB">
<feFlood flood-opacity="0" result="BackgroundImageFix"/>
<feGaussianBlur in="BackgroundImageFix" stdDeviation="1.5"/>
<feComposite in2="SourceAlpha" operator="in" result="effect1_backgroundBlur_1_960"/>
<feBlend mode="normal" in="SourceGraphic" in2="effect1_backgroundBlur_1_960" result="shape"/>
</filter>
</defs>
</svg>
