<svg width="45" height="45" viewBox="0 0 45 45" fill="none" xmlns="http://www.w3.org/2000/svg">
<g clip-path="url(#clip0_163_6346)">
<path d="M3.73116 34.0268H41.269C43.0284 30.9065 44.0335 27.3041 44.0335 23.4666C44.0335 11.574 34.3927 1.93323 22.5001 1.93323C10.6075 1.93323 0.966736 11.574 0.966736 23.4666C0.966648 27.3042 1.97168 30.9065 3.73116 34.0268Z" fill="#FFC839"/>
<path d="M20.6359 30.3063C20.6359 30.3063 21.941 30.8788 22.5 31.7C23.0591 30.8788 24.3642 30.3063 24.3642 30.3063L29.6192 27.6335C29.1745 27.4961 28.7251 27.3748 28.2716 27.27C27.3794 26.3777 27.1531 24.6861 27.1125 23.5026C26.6468 24.0449 26.1581 24.4986 25.6912 24.8612C24.7813 25.5677 23.6586 25.9515 22.5023 25.9515C21.346 25.9515 20.2233 25.5677 19.3136 24.8612C18.8466 24.4985 18.3579 24.0448 17.8922 23.5026C17.8515 24.6861 17.6253 26.3777 16.733 27.27C16.2786 27.375 15.8281 27.4966 15.3826 27.6344L20.6359 30.3063Z" fill="#FFAA7B"/>
<path d="M22.284 25.9468C21.2053 25.9017 20.1659 25.523 19.3136 24.8611C18.8466 24.4985 18.3578 24.0448 17.8922 23.5024C17.8568 24.5319 17.6805 25.9453 17.0481 26.8832C17.9475 28.6984 19.1128 30.2173 20.2914 29.4228C21.7449 28.4431 22.176 26.987 22.284 25.9468Z" fill="#FC9460"/>
<path d="M20.8207 30.0276L18.4891 28.8417C17.497 29.1435 16.1423 29.9312 16.0945 31.9875C15.4245 32.1035 12.051 32.8456 12.051 35.9974V42.2976C15.1453 44.0188 18.7078 45 22.5 45C22.5753 45 22.65 44.9979 22.725 44.9972V31.932C22.725 30.8626 20.8207 30.0276 20.8207 30.0276Z" fill="#7E6DD1"/>
<path d="M12.1827 42.3699V35.9974C12.1827 32.5923 16.2249 32.1005 16.2249 32.1005C16.2249 29.9387 17.6766 29.1872 18.6545 28.9259L15.8445 27.4966C9.82778 29.4586 6.95411 30.2432 5.45575 31.3128C7.01563 32.3774 9.46884 34.5889 9.46884 37.9724V40.6096C10.3281 41.2635 11.2353 41.8519 12.1827 42.3699Z" fill="#7255CE"/>
<path d="M29.1555 27.4966L24.1793 30.0276C24.1793 30.0276 22.275 30.8626 22.275 31.932V44.9972C22.3501 44.9979 22.4248 45 22.5 45C23.5101 45 24.5036 44.9293 25.4766 44.7947L25.476 44.7943L31.6092 42.9823V42.9824C32.9972 42.3333 34.312 41.5378 35.5311 40.6095V37.9724C35.5311 34.5889 37.9844 32.3775 39.5442 31.3128C38.0459 30.2432 35.1724 29.4586 29.1555 27.4966Z" fill="#9589E8"/>
<path d="M27.6168 25.2356C27.5934 25.2226 27.5672 25.2154 27.5403 25.2144C27.5135 25.2135 27.4869 25.2188 27.4625 25.2301C27.4382 25.2414 27.4168 25.2582 27.4002 25.2793C27.3836 25.3003 27.3722 25.325 27.3669 25.3513C27.2165 26.0878 26.564 28.4081 24.141 29.7851C23.9023 29.9208 23.8452 30.2391 24.0256 30.4459L26.4741 33.2502C26.9825 33.8358 27.9184 33.7304 28.2853 33.0473C28.9057 31.8924 29.7699 30.1346 30.4096 28.2448C30.5241 27.9064 30.4427 27.5322 30.2013 27.2689C29.4557 26.4556 28.5828 25.7688 27.6168 25.2356Z" fill="#B5B0F7"/>
<path d="M20.8605 29.7852C20.2775 29.4539 19.7979 29.0677 19.4022 28.6624C18.8126 28.7124 16.2483 29.0907 16.1016 31.8514C16.2992 32.2538 16.5041 32.6525 16.7161 33.0475C17.083 33.7305 18.019 33.8359 18.5273 33.2504L20.9757 30.4461C21.1562 30.2392 21.099 29.9207 20.8605 29.7852Z" fill="#9589E8"/>
<path d="M17.6346 25.3514C17.6293 25.3251 17.6179 25.3005 17.6012 25.2794C17.5846 25.2583 17.5633 25.2415 17.5389 25.2302C17.5146 25.219 17.4879 25.2136 17.4611 25.2145C17.4343 25.2155 17.4081 25.2227 17.3846 25.2357C16.4186 25.7689 15.5458 26.4557 14.8002 27.269C14.5589 27.5324 14.4774 27.9065 14.5919 28.2449C15.0755 29.6736 15.6872 31.0262 16.225 32.1005C16.2251 28.8415 19.5256 28.7865 19.5256 28.7865L19.5257 28.7862C18.1793 27.4795 17.7524 25.9289 17.6346 25.3514Z" fill="#7E6DD1"/>
<path d="M35.3553 40.7427C37.7729 38.9406 39.7872 36.653 41.2689 34.0268C41.1031 33.5337 40.9237 33.0812 40.7288 32.6839C40.4481 32.1114 40.0585 31.6624 39.4576 31.2521C37.9039 32.2924 35.3553 34.5242 35.3553 37.9723V40.7427Z" fill="#B5B0F7"/>
<path d="M5.54242 31.2521C4.94151 31.6625 4.5518 32.1114 4.27117 32.6839C4.0764 33.0812 3.89693 33.5337 3.73108 34.0268C5.21276 36.653 7.22701 38.9406 9.64462 40.7427V37.9723C9.64471 34.5242 7.09606 32.2924 5.54242 31.2521Z" fill="#7E6DD1"/>
<path d="M30.5545 36.969H26.4676C25.8875 36.969 25.4129 37.4436 25.4129 38.0237V44.4397C25.4129 44.5641 25.4358 44.6832 25.476 44.7943C27.5997 44.5013 29.6672 43.8904 31.6092 42.9823V38.0237C31.6092 37.4436 31.1346 36.969 30.5545 36.969Z" fill="#B5B0F7"/>
<path d="M37.2206 7.75244C35.1762 9.26363 32.6326 11.8112 33.7109 15.0032C35.3808 19.9465 27.8222 23.0639 36.2597 26.6467C39.6333 28.0793 41.5936 29.574 42.7324 30.8524C43.5737 28.5487 44.0335 26.0615 44.0335 23.4666C44.0334 17.2676 41.4129 11.6813 37.2206 7.75244ZM7.77948 7.75244C9.82382 9.26363 12.3675 11.8112 11.2891 15.0032C9.61921 19.9465 17.1778 23.0639 8.7403 26.6467C5.36671 28.0793 3.4064 29.574 2.2676 30.8524C1.42631 28.5487 0.966553 26.0615 0.966553 23.4666C0.966641 17.2676 3.5871 11.6813 7.77948 7.75244Z" fill="#FFDD40"/>
<path d="M14.4907 13.8407H30.5985C30.6271 12.6801 30.8206 9.6081 32.0336 7.4198C32.1171 7.26953 32.1675 7.10317 32.1816 6.93183C32.1956 6.7605 32.1729 6.58815 32.115 6.42629C31.6748 5.19916 30.3602 2.33041 27.493 1.56523C27.3402 1.52445 27.2999 1.32687 27.4242 1.22923L27.8539 0.89164C28.0486 0.738534 27.9738 0.427577 27.7306 0.380732C25.6151 -0.0272568 18.5896 -1.00355 16.4073 3.48389C16.277 3.75169 16.0315 3.94452 15.7432 4.01914C15.1082 4.1835 13.9661 4.67885 13.2217 6.16323C13.1493 6.30687 13.1062 6.46345 13.0949 6.62387C13.0835 6.7843 13.1042 6.94538 13.1556 7.09777C13.5173 8.16397 14.3988 11.0269 14.4907 13.8407Z" fill="#56415E"/>
<path d="M21.6982 6.74754C19.1254 2.82683 23.6256 0.00158691 23.6256 0.00158691C20.8964 0.0369189 17.7437 0.735825 16.4073 3.4839C16.277 3.7517 16.0315 3.94454 15.7432 4.01916C15.1082 4.18351 13.9661 4.67886 13.2217 6.16325C13.1493 6.30689 13.1062 6.46346 13.0949 6.62389C13.0835 6.78432 13.1042 6.9454 13.1556 7.09779C13.5173 8.16399 14.3988 11.0269 14.4907 13.8407H18.2401C20.6132 11.9184 23.227 9.07735 21.6982 6.74754Z" fill="#45304C"/>
<path d="M31.2238 13.3712C30.8631 13.0408 30.0569 13.2083 29.7463 13.4106C29.8143 13.8343 29.8182 14.2678 29.7594 14.6958L29.3929 17.3652C29.3929 17.5804 29.3861 17.7915 29.3737 17.9989C30.2674 18.2685 30.7992 17.4661 30.874 16.9155C30.9061 16.6785 30.959 16.4447 31.0319 16.2169C31.2696 15.4745 32.1273 14.1992 31.2238 13.3712Z" fill="#FFAA7B"/>
<path d="M13.7763 13.3712C14.1369 13.0408 14.9432 13.2083 15.2538 13.4106C15.186 13.836 15.1816 14.2691 15.2407 14.6958L15.6072 17.3652C15.6072 17.5804 15.6139 17.7915 15.6264 17.9989C14.7327 18.2685 14.2008 17.4661 14.126 16.9155C14.0939 16.6785 14.0411 16.4447 13.9682 16.2169C13.7304 15.4745 12.8728 14.1992 13.7763 13.3712Z" fill="#FC9460"/>
<path d="M29.6136 12.5859C29.5311 12.3707 29.4271 12.1527 29.2961 11.9471C29.0742 11.5989 28.9765 11.187 29.0063 10.7764C29.0918 9.59535 29.046 7.28532 27.4955 6.58764C26.1783 5.99491 24.5624 6.33812 23.532 6.68072C22.8874 6.89468 22.1922 6.90276 21.5428 6.70383C20.3688 7.60489 20.3412 9.63367 20.4205 10.7139C20.4516 11.1274 20.3483 11.5399 20.1261 11.89C19.9975 12.0918 19.8946 12.3054 19.8123 12.5167C19.5454 13.2025 19.4675 13.9462 19.5676 14.6745L19.939 17.3798C19.939 21.2692 22.0151 23.9127 23.7811 25.2842C24.0418 25.4866 24.3207 25.6607 24.6119 25.8093C24.9956 25.6395 25.3572 25.4235 25.6888 25.1663C27.4318 23.8129 29.4807 21.2038 29.4807 17.3652L29.8473 14.6958C29.9451 13.9842 29.871 13.2574 29.6136 12.5859Z" fill="#FFC7AB"/>
<path d="M23.7937 25.1663C22.0507 23.8129 20.0017 21.2038 20.0017 17.3653L19.6351 14.6952C19.5364 13.9765 19.6132 13.2425 19.8767 12.5657C19.9579 12.3571 20.0594 12.1463 20.1864 11.9472C20.4057 11.6017 20.5077 11.1946 20.477 10.7865C20.3962 9.68643 20.4276 7.58997 21.6982 6.74745C21.6207 6.72804 21.544 6.70575 21.4682 6.68066C20.4377 6.33806 18.8219 5.99485 17.5047 6.58758C15.9497 7.28719 15.908 9.60847 15.9946 10.7865C16.0253 11.1946 15.9233 11.6017 15.704 11.9472C15.577 12.1463 15.4754 12.3571 15.3942 12.5657C15.1308 13.2425 15.054 13.9765 15.1527 14.6952L15.5193 17.3653C15.5193 21.2038 17.5684 23.8128 19.3113 25.1663C20.221 25.8728 21.3437 26.2565 22.5 26.2565C23.2755 26.2565 24.0412 26.0833 24.7412 25.7497C24.4053 25.5899 24.0876 25.3943 23.7937 25.1663Z" fill="#FFAA7B"/>
</g>
<defs>
<clipPath id="clip0_163_6346">
<rect width="45" height="45" fill="white"/>
</clipPath>
</defs>
</svg>
