<svg width="15" height="24" viewBox="0 0 15 24" fill="none" xmlns="http://www.w3.org/2000/svg">
<path d="M2.56875 23.6079L14.5579 12.9461C14.698 12.822 14.8092 12.6746 14.885 12.5122C14.9609 12.3498 14.9999 12.1757 14.9999 11.9999C14.9999 11.824 14.9609 11.6499 14.885 11.4876C14.8092 11.3252 14.698 11.1777 14.5579 11.0536L2.56875 0.391822C2.28655 0.140864 1.90381 -0.000122159 1.50471 -0.000122136C1.10562 -0.000122113 0.722878 0.140864 0.440678 0.391822C0.158477 0.642779 -6.09855e-05 0.983151 -6.09767e-05 1.33806C-6.09678e-05 1.69297 0.158478 2.03334 0.440678 2.28429L11.3808 11.9999L0.440678 21.7155C0.158478 21.9664 -6.00631e-05 22.3068 -6.00446e-05 22.6617C-6.00261e-05 23.0166 0.158478 23.357 0.440679 23.6079C0.722879 23.8589 1.10562 23.9999 1.50472 23.9999C1.90381 23.9999 2.28655 23.8589 2.56875 23.6079Z" fill="white" fill-opacity="0.8"/>
</svg>
