<svg width="34" height="37" viewBox="0 0 34 37" fill="none" xmlns="http://www.w3.org/2000/svg">
<path d="M10.4747 8.13277C9.79237 8.13277 9.22652 7.56692 9.22652 6.88457V1.89176C9.22652 1.20941 9.79237 0.643555 10.4747 0.643555C11.1571 0.643555 11.7229 1.20941 11.7229 1.89176V6.88457C11.7229 7.56692 11.1571 8.13277 10.4747 8.13277ZM23.7889 8.13277C23.1065 8.13277 22.5407 7.56692 22.5407 6.88457V1.89176C22.5407 1.20941 23.1065 0.643555 23.7889 0.643555C24.4712 0.643555 25.0371 1.20941 25.0371 1.89176V6.88457C25.0371 7.56692 24.4712 8.13277 23.7889 8.13277ZM11.3069 22.6951C11.0905 22.6951 10.8741 22.6452 10.6744 22.562C10.4581 22.4788 10.2917 22.3623 10.1252 22.2125C9.82566 21.8963 9.64259 21.4802 9.64259 21.0309C9.64259 20.8145 9.69251 20.5982 9.77573 20.3984C9.85894 20.1987 9.97544 20.0157 10.1252 19.8492C10.2917 19.6994 10.4581 19.5829 10.6744 19.4997C11.2736 19.2501 12.0225 19.3832 12.4885 19.8492C12.7881 20.1654 12.9711 20.5982 12.9711 21.0309C12.9711 21.1307 12.9545 21.2472 12.9378 21.3637C12.9212 21.4636 12.8879 21.5634 12.838 21.6633C12.8047 21.7631 12.7548 21.863 12.6882 21.9629C12.6383 22.0461 12.5551 22.1293 12.4885 22.2125C12.1723 22.5121 11.7396 22.6951 11.3069 22.6951ZM17.1318 22.6951C16.9154 22.6951 16.6991 22.6452 16.4994 22.562C16.283 22.4788 16.1166 22.3623 15.9502 22.2125C15.6506 21.8963 15.4675 21.4802 15.4675 21.0309C15.4675 20.8145 15.5175 20.5982 15.6007 20.3984C15.6839 20.1987 15.8004 20.0157 15.9502 19.8492C16.1166 19.6994 16.283 19.5829 16.4994 19.4997C17.0985 19.2334 17.8474 19.3832 18.3134 19.8492C18.613 20.1654 18.7961 20.5982 18.7961 21.0309C18.7961 21.1307 18.7794 21.2472 18.7628 21.3637C18.7461 21.4636 18.7129 21.5634 18.6629 21.6633C18.6296 21.7631 18.5797 21.863 18.5131 21.9629C18.4632 22.0461 18.38 22.1293 18.3134 22.2125C17.9972 22.5121 17.5645 22.6951 17.1318 22.6951ZM22.9567 22.6951C22.7404 22.6951 22.524 22.6452 22.3243 22.562C22.108 22.4788 21.9415 22.3623 21.7751 22.2125L21.5754 21.9629C21.5124 21.8701 21.462 21.7694 21.4256 21.6633C21.3775 21.569 21.3439 21.468 21.3258 21.3637C21.3091 21.2472 21.2925 21.1307 21.2925 21.0309C21.2925 20.5982 21.4755 20.1654 21.7751 19.8492C21.9415 19.6994 22.108 19.5829 22.3243 19.4997C22.9401 19.2334 23.6724 19.3832 24.1384 19.8492C24.4379 20.1654 24.621 20.5982 24.621 21.0309C24.621 21.1307 24.6044 21.2472 24.5877 21.3637C24.5711 21.4636 24.5378 21.5634 24.4879 21.6633C24.4546 21.7631 24.4047 21.863 24.3381 21.9629C24.2882 22.0461 24.2049 22.1293 24.1384 22.2125C23.8222 22.5121 23.3895 22.6951 22.9567 22.6951ZM11.3069 28.5201C11.0905 28.5201 10.8741 28.4701 10.6744 28.3869C10.4747 28.3037 10.2917 28.1872 10.1252 28.0374C9.82566 27.7212 9.64259 27.2885 9.64259 26.8558C9.64259 26.6395 9.69251 26.4231 9.77573 26.2234C9.85894 26.007 9.97544 25.824 10.1252 25.6742C10.741 25.0584 11.8727 25.0584 12.4885 25.6742C12.7881 25.9904 12.9711 26.4231 12.9711 26.8558C12.9711 27.2885 12.7881 27.7212 12.4885 28.0374C12.1723 28.337 11.7396 28.5201 11.3069 28.5201ZM17.1318 28.5201C16.6991 28.5201 16.2664 28.337 15.9502 28.0374C15.6506 27.7212 15.4675 27.2885 15.4675 26.8558C15.4675 26.6395 15.5175 26.4231 15.6007 26.2234C15.6839 26.007 15.8004 25.824 15.9502 25.6742C16.5659 25.0584 17.6977 25.0584 18.3134 25.6742C18.4632 25.824 18.5797 26.007 18.6629 26.2234C18.7461 26.4231 18.7961 26.6395 18.7961 26.8558C18.7961 27.2885 18.613 27.7212 18.3134 28.0374C17.9972 28.337 17.5645 28.5201 17.1318 28.5201ZM22.9567 28.5201C22.524 28.5201 22.0913 28.337 21.7751 28.0374C21.6211 27.8811 21.502 27.6939 21.4256 27.4882C21.3424 27.2885 21.2925 27.0722 21.2925 26.8558C21.2925 26.6395 21.3424 26.4231 21.4256 26.2234C21.5088 26.007 21.6253 25.824 21.7751 25.6742C22.1579 25.2914 22.7404 25.1083 23.273 25.2248C23.3895 25.2415 23.4893 25.2747 23.5892 25.3247C23.689 25.358 23.7889 25.4079 23.8887 25.4745C23.9719 25.5244 24.0552 25.6076 24.1384 25.6742C24.4379 25.9904 24.621 26.4231 24.621 26.8558C24.621 27.2885 24.4379 27.7212 24.1384 28.0374C23.8222 28.337 23.3895 28.5201 22.9567 28.5201ZM31.2781 14.9396H2.98551C2.30316 14.9396 1.7373 14.3738 1.7373 13.6914C1.7373 13.0091 2.30316 12.4432 2.98551 12.4432H31.2781C31.9604 12.4432 32.5263 13.0091 32.5263 13.6914C32.5263 14.3738 31.9604 14.9396 31.2781 14.9396Z" fill="white" fill-opacity="0.9"/>
<path d="M23.789 36.425H10.4748C4.40024 36.425 0.905273 32.9301 0.905273 26.8555V12.7092C0.905273 6.63462 4.40024 3.13965 10.4748 3.13965H23.789C29.8636 3.13965 33.3585 6.63462 33.3585 12.7092V26.8555C33.3585 32.9301 29.8636 36.425 23.789 36.425ZM10.4748 5.63605C5.71501 5.63605 3.40168 7.94939 3.40168 12.7092V26.8555C3.40168 31.6153 5.71501 33.9286 10.4748 33.9286H23.789C28.5488 33.9286 30.8621 31.6153 30.8621 26.8555V12.7092C30.8621 7.94939 28.5488 5.63605 23.789 5.63605H10.4748Z" fill="white" fill-opacity="0.9"/>
</svg>
