<svg  viewBox="0 0 20 23" fill="none" >
<path d="M3.88965 22.4138H16.1103C18.2552 22.4138 20 20.669 20 18.5241V6.89655C20 6.51724 19.6897 6.2069 19.3103 6.2069H15.1724V5.17241C15.1724 2.32069 12.8517 0 10 0C7.14828 0 4.82759 2.32069 4.82759 5.17241V6.2069H0.689655C0.310345 6.2069 0 6.51724 0 6.89655V18.5241C0 20.669 1.74483 22.4138 3.88965 22.4138ZM6.2069 5.17241C6.2069 3.07931 7.9069 1.37931 10 1.37931C12.0931 1.37931 13.7931 3.07931 13.7931 5.17241V6.2069H6.2069V5.17241ZM1.37931 7.58621H4.82759V9.31034C4.82759 9.68966 5.13793 10 5.51724 10C5.89655 10 6.2069 9.68966 6.2069 9.31034V7.58621H13.7931V9.31034C13.7931 9.68966 14.1034 10 14.4828 10C14.8621 10 15.1724 9.68966 15.1724 9.31034V7.58621H18.6207V18.5241C18.6207 19.9069 17.4931 21.0345 16.1103 21.0345H3.88965C2.5069 21.0345 1.37931 19.9069 1.37931 18.5241V7.58621Z" fill="currentColor"/>
</svg>
