<svg width="15" height="13" viewBox="0 0 15 13" fill="none" xmlns="http://www.w3.org/2000/svg">
<path fill-rule="evenodd" clip-rule="evenodd" d="M14.3322 0.231644C14.5497 0.405779 14.6891 0.659126 14.7198 0.936007C14.7506 1.21289 14.6701 1.49065 14.4962 1.70824L6.08851 12.2178C5.99614 12.3332 5.88047 12.4278 5.74906 12.4955C5.61764 12.5631 5.47344 12.6023 5.32585 12.6104C5.17827 12.6186 5.03063 12.5955 4.89258 12.5427C4.75453 12.4899 4.62917 12.4085 4.52468 12.304L0.320845 8.10017C0.220468 8.00322 0.140404 7.88725 0.085324 7.75903C0.0302443 7.63081 0.00125229 7.49291 3.96811e-05 7.35336C-0.00117293 7.21381 0.0254179 7.07543 0.078261 6.94627C0.131104 6.81711 0.209141 6.69977 0.307818 6.60109C0.406496 6.50241 0.523837 6.42437 0.652996 6.37153C0.782155 6.31869 0.920545 6.2921 1.06009 6.29331C1.19964 6.29452 1.33754 6.32351 1.46576 6.37859C1.59399 6.43367 1.70995 6.51374 1.8069 6.61412L5.18048 9.98769L12.8546 0.394542C12.9408 0.286719 13.0474 0.196944 13.1684 0.130347C13.2893 0.0637496 13.4222 0.0216353 13.5594 0.00640993C13.6967 -0.00881545 13.8355 0.00314653 13.9681 0.0416127C14.1007 0.0800789 14.2245 0.145346 14.3322 0.231644Z" fill="white"/>
</svg>
