<svg viewBox="0 0 18 21" fill="none" >
<path d="M0.758794 5.51644V8.27788C0.749475 8.37393 0.760352 8.47088 0.790725 8.56248C0.821097 8.65408 0.870295 8.73832 0.935156 8.80978C1.00002 8.88123 1.07911 8.93834 1.16735 8.97741C1.25559 9.01649 1.35103 9.03667 1.44754 9.03667C1.54404 9.03667 1.63948 9.01649 1.72772 8.97741C1.81596 8.93834 1.89506 8.88123 1.95992 8.80978C2.02478 8.73832 2.07398 8.65408 2.10435 8.56248C2.13472 8.47088 2.1456 8.37393 2.13628 8.27788V5.51644H2.82826V5.58111C2.84486 5.75226 2.92459 5.9111 3.05192 6.02667C3.17925 6.14225 3.34504 6.20627 3.517 6.20627C3.68895 6.20627 3.85475 6.14225 3.98208 6.02667C4.1094 5.9111 4.18914 5.75226 4.20574 5.58111V4.07429C4.21506 3.97823 4.20418 3.88129 4.17381 3.78969C4.14344 3.69808 4.09424 3.61385 4.02938 3.54239C3.96452 3.47093 3.88543 3.41383 3.79718 3.37475C3.70894 3.33568 3.6135 3.31549 3.517 3.31549C3.42049 3.31549 3.32505 3.33568 3.23681 3.37475C3.14857 3.41383 3.06948 3.47093 3.00462 3.54239C2.93976 3.61385 2.89056 3.69808 2.86019 3.78969C2.82981 3.88129 2.81894 3.97823 2.82826 4.07429V4.13896H0.758794C0.662739 4.12964 0.565797 4.14051 0.474195 4.17089C0.382593 4.20126 0.298357 4.25046 0.226898 4.31532C0.15544 4.38018 0.0983383 4.45927 0.0592624 4.54751C0.0201864 4.63575 0 4.73119 0 4.8277C0 4.9242 0.0201864 5.01964 0.0592624 5.10788C0.0983383 5.19613 0.15544 5.27522 0.226898 5.34008C0.298357 5.40494 0.382593 5.45414 0.474195 5.48451C0.565797 5.51488 0.662739 5.52576 0.758794 5.51644ZM0.758794 11.0393V13.8008C0.749475 13.8968 0.760352 13.9938 0.790725 14.0854C0.821097 14.177 0.870295 14.2612 0.935156 14.3327C1.00002 14.4041 1.07911 14.4612 1.16735 14.5003C1.25559 14.5394 1.35103 14.5595 1.44754 14.5595C1.54404 14.5595 1.63948 14.5394 1.72772 14.5003C1.81596 14.4612 1.89506 14.4041 1.95992 14.3327C2.02478 14.2612 2.07398 14.177 2.10435 14.0854C2.13472 13.9938 2.1456 13.8968 2.13628 13.8008V11.0393H2.82826V11.104C2.81894 11.2 2.82981 11.297 2.86019 11.3886C2.89056 11.4802 2.93976 11.5644 3.00462 11.6359C3.06948 11.7073 3.14857 11.7644 3.23681 11.8035C3.32505 11.8426 3.42049 11.8628 3.517 11.8628C3.6135 11.8628 3.70894 11.8426 3.79718 11.8035C3.88543 11.7644 3.96452 11.7073 4.02938 11.6359C4.09424 11.5644 4.14344 11.4802 4.17381 11.3886C4.20418 11.297 4.21506 11.2 4.20574 11.104V9.59716C4.21506 9.50111 4.20418 9.40417 4.17381 9.31256C4.14344 9.22096 4.09424 9.13672 4.02938 9.06527C3.96452 8.99381 3.88543 8.93671 3.79718 8.89763C3.70894 8.85855 3.6135 8.83837 3.517 8.83837C3.42049 8.83837 3.32505 8.85855 3.23681 8.89763C3.14857 8.93671 3.06948 8.99381 3.00462 9.06527C2.93976 9.13672 2.89056 9.22096 2.86019 9.31256C2.82981 9.40417 2.81894 9.50111 2.82826 9.59716V9.66183H0.758794C0.587642 9.67844 0.428803 9.75817 0.313231 9.8855C0.19766 10.0128 0.133636 10.1786 0.133636 10.3506C0.133636 10.5225 0.19766 10.6883 0.313231 10.8157C0.428803 10.943 0.587642 11.0227 0.758794 11.0393Z" fill="currentColor"/>
<path d="M14.5531 2.45998e-06H4.20574C3.44115 -0.000911531 2.69804 0.25289 2.09376 0.721328C1.48947 1.18977 1.05844 1.84615 0.868734 2.58683C0.834321 2.7604 0.867707 2.94056 0.962029 3.09027C1.05635 3.23998 1.20444 3.34787 1.37586 3.39176C1.54728 3.43565 1.729 3.4122 1.88366 3.32624C2.03833 3.24028 2.15418 3.09834 2.20742 2.92958C2.32088 2.48571 2.57886 2.09223 2.94069 1.8112C3.30252 1.53017 3.7476 1.37758 4.20574 1.37749H14.5531C15.1019 1.37749 15.6283 1.59552 16.0164 1.98362C16.4045 2.37172 16.6225 2.89809 16.6225 3.44695V17.2477C16.6225 17.7965 16.4045 18.3229 16.0164 18.711C15.6283 19.0991 15.1019 19.3171 14.5531 19.3171H4.20574C3.65689 19.3171 3.13051 19.0991 2.74241 18.711C2.35431 18.3229 2.13628 17.7965 2.13628 17.2477V16.5557H2.82826V16.6204C2.81894 16.7164 2.82981 16.8134 2.86019 16.905C2.89056 16.9966 2.93976 17.0808 3.00462 17.1523C3.06948 17.2237 3.14857 17.2808 3.23681 17.3199C3.32505 17.359 3.42049 17.3792 3.517 17.3792C3.61351 17.3792 3.70894 17.359 3.79718 17.3199C3.88543 17.2808 3.96452 17.2237 4.02938 17.1523C4.09424 17.0808 4.14344 16.9966 4.17381 16.905C4.20418 16.8134 4.21506 16.7164 4.20574 16.6204V15.1135C4.18914 14.9424 4.1094 14.7836 3.98208 14.668C3.85475 14.5524 3.68895 14.4884 3.517 14.4884C3.34504 14.4884 3.17925 14.5524 3.05192 14.668C2.92459 14.7836 2.84486 14.9424 2.82826 15.1135V15.1782H0.758794C0.662739 15.1689 0.565797 15.1798 0.474195 15.2101C0.382593 15.2405 0.298357 15.2897 0.226898 15.3546C0.15544 15.4194 0.0983383 15.4985 0.0592624 15.5868C0.0201864 15.675 0 15.7704 0 15.867C0 15.9635 0.0201864 16.0589 0.0592624 16.1471C0.0983383 16.2354 0.15544 16.3145 0.226898 16.3793C0.298357 16.4442 0.382593 16.4934 0.474195 16.5238C0.565797 16.5541 0.662739 16.565 0.758794 16.5557V17.2477C0.760504 18.1613 1.12421 19.0371 1.77027 19.6831C2.41633 20.3292 3.29208 20.6929 4.20574 20.6946H14.5531C15.4667 20.6929 16.3425 20.3292 16.9885 19.6831C17.6346 19.0371 17.9983 18.1613 18 17.2477V3.44695C17.9983 2.53329 17.6346 1.65754 16.9885 1.01148C16.3425 0.36542 15.4667 0.00171184 14.5531 2.45998e-06Z" fill="currentColor"/>
<path d="M9.72865 11.2203C9.21703 11.2203 8.71689 11.0686 8.29149 10.7844C7.86609 10.5001 7.53453 10.0961 7.33873 9.62346C7.14294 9.15078 7.09172 8.63065 7.19153 8.12886C7.29134 7.62706 7.53771 7.16613 7.89949 6.80436C8.26126 6.44258 8.72219 6.19621 9.22399 6.0964C9.72578 5.99658 10.2459 6.04781 10.7186 6.2436C11.1913 6.43939 11.5953 6.77095 11.8795 7.19636C12.1638 7.62176 12.3155 8.1219 12.3155 8.63352C12.3155 9.31959 12.0429 9.97756 11.5578 10.4627C11.0727 10.9478 10.4147 11.2203 9.72865 11.2203ZM9.72865 7.46945C9.49458 7.46945 9.26577 7.53886 9.07115 7.6689C8.87653 7.79894 8.72484 7.98377 8.63526 8.20003C8.54569 8.41628 8.52225 8.65424 8.56792 8.88381C8.61358 9.11338 8.7263 9.32425 8.89181 9.48976C9.05732 9.65528 9.2682 9.76799 9.49777 9.81366C9.72734 9.85932 9.9653 9.83588 10.1815 9.74631C10.3978 9.65673 10.5826 9.50505 10.7127 9.31042C10.8427 9.1158 10.9121 8.88699 10.9121 8.65292C10.9121 8.33905 10.7874 8.03802 10.5655 7.81608C10.3435 7.59414 10.0425 7.46945 9.72865 7.46945ZM12.4836 14.4474C12.3878 14.4485 12.2929 14.4295 12.2049 14.3916C12.1169 14.3537 12.0378 14.2979 11.9727 14.2275C11.6866 13.9113 11.3373 13.6585 10.9474 13.4854C10.5576 13.3124 10.1358 13.223 9.70925 13.223C9.28273 13.223 8.86093 13.3124 8.47108 13.4854C8.08122 13.6585 7.73194 13.9113 7.44578 14.2275C7.38921 14.3097 7.31555 14.3787 7.22984 14.4297C7.14413 14.4807 7.04841 14.5126 6.94922 14.5232C6.85003 14.5338 6.74972 14.5228 6.65518 14.491C6.56063 14.4592 6.47408 14.4073 6.40146 14.3389C6.32883 14.2706 6.27185 14.1873 6.23441 14.0948C6.19698 14.0024 6.17998 13.9029 6.18457 13.8033C6.18917 13.7036 6.21525 13.6061 6.26104 13.5175C6.30683 13.4289 6.37124 13.3512 6.44985 13.2898C6.86485 12.837 7.3695 12.4754 7.93173 12.228C8.49395 11.9807 9.10148 11.8529 9.71572 11.8529C10.33 11.8529 10.9375 11.9807 11.4997 12.228C12.0619 12.4754 12.5666 12.837 12.9816 13.2898C13.0718 13.3889 13.1312 13.5121 13.1527 13.6443C13.1742 13.7766 13.1569 13.9123 13.1028 14.0348C13.0487 14.1574 12.9601 14.2617 12.8479 14.3349C12.7357 14.4081 12.6047 14.4472 12.4707 14.4474H12.4836Z" fill="currentColor"/>
</svg>
