<svg width="19" height="17" viewBox="0 0 19 17" fill="none" xmlns="http://www.w3.org/2000/svg">
<path d="M14.9029 6.02345V5.81976C14.9029 4.27626 14.2843 2.79598 13.1832 1.70457C12.082 0.613151 10.5885 0 9.03123 0C7.47396 0 5.98046 0.613151 4.8793 1.70457C3.77815 2.79598 3.15952 4.27626 3.15952 5.81976V6.01763C2.46739 6.3868 1.85708 6.88995 1.36477 7.49724C0.872469 8.10453 0.50819 8.80361 0.293531 9.55303C0.0788729 10.3024 0.0182042 11.087 0.115122 11.86C0.212039 12.6331 0.46457 13.3791 0.857745 14.0536C1.25092 14.7282 1.77673 15.3177 2.40402 15.7871C3.0313 16.2565 3.74729 16.5963 4.50953 16.7863C5.27177 16.9764 6.06475 17.0128 6.84146 16.8935C7.61818 16.7742 8.36281 16.5015 9.03123 16.0916C9.69954 16.5127 10.4469 16.7955 11.2283 16.9228C12.0097 17.0502 12.809 17.0196 13.5782 16.8329C14.3474 16.6462 15.0705 16.3071 15.704 15.8362C16.3376 15.3653 16.8685 14.7723 17.2648 14.0927C17.6611 13.4132 17.9146 12.6612 18.0101 11.882C18.1056 11.1028 18.0411 10.3126 17.8205 9.55874C17.5998 8.80491 17.2276 8.10312 16.7262 7.49557C16.2248 6.88802 15.6046 6.38727 14.9029 6.02345ZM9.03123 1.16395C9.96028 1.16395 10.8685 1.43701 11.6409 1.9486C12.4134 2.46018 13.0155 3.18732 13.371 4.03806C13.7266 4.88879 13.8196 5.82492 13.6383 6.72806C13.4571 7.6312 13.0097 8.46078 12.3528 9.11191C11.6958 9.76303 10.8588 10.2065 9.94764 10.3861C9.03644 10.5657 8.09196 10.4735 7.23363 10.1212C6.37529 9.76877 5.64167 9.17203 5.12551 8.40638C4.60936 7.64074 4.33386 6.74059 4.33386 5.81976C4.33386 4.58496 4.82876 3.40074 5.70969 2.52761C6.59062 1.65447 7.78541 1.16395 9.03123 1.16395ZM6.09538 15.7133C5.10224 15.7124 4.13496 15.3995 3.33247 14.8196C2.52998 14.2397 1.93358 13.4226 1.62893 12.4857C1.32428 11.5488 1.32707 10.5403 1.63688 9.60512C1.9467 8.6699 2.54761 7.85606 3.35329 7.28052C3.55534 8.04031 3.91053 8.75169 4.39744 9.37176C4.88436 9.99183 5.49292 10.5077 6.18644 10.8884C6.87995 11.2691 7.64406 11.5066 8.43269 11.5867C9.22132 11.6668 10.0181 11.5877 10.7751 11.3543C10.6991 12.534 10.1732 13.6408 9.30418 14.4503C8.43513 15.2598 7.28796 15.7113 6.09538 15.7133ZM11.9671 15.7133C11.3159 15.7141 10.6717 15.5793 10.0764 15.3176C10.6726 14.7764 11.1485 14.1182 11.474 13.3848C11.7995 12.6513 11.9675 11.8588 11.9671 11.0575V10.8538C12.6418 10.4678 13.2322 9.9525 13.704 9.33801C14.1758 8.72353 14.5195 8.02214 14.715 7.2747C15.5236 7.84972 16.1271 8.66442 16.4384 9.60133C16.7496 10.5382 16.7527 11.5489 16.447 12.4876C16.1413 13.4263 15.5427 14.2445 14.7376 14.8243C13.9324 15.404 12.9623 15.7154 11.9671 15.7133Z" fill="white" fill-opacity="0.8"/>
</svg>
