<svg width="24" height="24" viewBox="0 0 24 24" fill="none" xmlns="http://www.w3.org/2000/svg">
<path d="M15.1708 24.0001H8.55084C2.55973 24.0001 0 21.4404 0 15.4493V8.82928C0 2.83818 2.55973 0.278442 8.55084 0.278442H10.7575C11.2099 0.278442 11.585 0.653576 11.585 1.10594C11.585 1.55831 11.2099 1.93344 10.7575 1.93344H8.55084C3.46447 1.93344 1.655 3.74291 1.655 8.82928V15.4493C1.655 20.5357 3.46447 22.3451 8.55084 22.3451H15.1708C20.2572 22.3451 22.0667 20.5357 22.0667 15.4493V13.2426C22.0667 12.7902 22.4418 12.4151 22.8942 12.4151C23.3465 12.4151 23.7217 12.7902 23.7217 13.2426V15.4493C23.7217 21.4404 21.1619 24.0001 15.1708 24.0001Z" fill="white" fill-opacity="0.8"/>
<path d="M7.9995 18.4174C7.32646 18.4174 6.7086 18.1747 6.25623 17.7333C5.7156 17.1927 5.4839 16.4093 5.60526 15.5818L6.0797 12.2608C6.16796 11.6209 6.58723 10.7934 7.0396 10.341L15.7339 1.64673C17.9295 -0.548909 20.1582 -0.548909 22.3539 1.64673C23.5565 2.84936 24.0971 4.07406 23.9868 5.29876C23.8875 6.29176 23.3579 7.26269 22.3539 8.2557L13.6596 16.95C13.2072 17.4023 12.3797 17.8216 11.7398 17.9099L8.41877 18.3843C8.27533 18.4174 8.1319 18.4174 7.9995 18.4174ZM16.9034 2.81626L8.20913 11.5105C7.9995 11.7202 7.75676 12.2056 7.71263 12.4925L7.2382 15.8135C7.19406 16.1335 7.26026 16.3983 7.42576 16.5638C7.59126 16.7293 7.85606 16.7955 8.17603 16.7514L11.4971 16.2769C11.7839 16.2328 12.2804 15.9901 12.479 15.7804L21.1733 7.08616C21.8905 6.36899 22.2656 5.72906 22.3208 5.13326C22.387 4.41609 22.0118 3.65479 21.1733 2.80523C19.408 1.03989 18.1943 1.53639 16.9034 2.81626Z" fill="white" fill-opacity="0.8"/>
<path d="M20.5219 9.74529C20.4447 9.74529 20.3675 9.73426 20.3013 9.71219C18.8674 9.3039 17.5614 8.53628 16.5072 7.48205C15.453 6.42782 14.6854 5.1219 14.2771 3.68799C14.2191 3.47589 14.2467 3.24949 14.354 3.05756C14.4613 2.86563 14.6397 2.72354 14.8508 2.66189C15.2921 2.54052 15.7445 2.79429 15.8659 3.23562C16.5279 5.58572 18.3925 7.45036 20.7426 8.11236C21.1839 8.23372 21.4377 8.69712 21.3163 9.13846C21.217 9.51359 20.886 9.74529 20.5219 9.74529Z" fill="white" fill-opacity="0.8"/>
</svg>
