<svg  viewBox="0 0 25 16" fill="none">
<g clip-path="url(#clip0_163_3994)">
<path d="M24.9985 3.322C24.958 2.66086 24.1668 2.15239 23.2504 2.15239H19.7771C19.5185 1.15215 18.7198 0.374485 17.701 0.137923C16.9094 -0.0458114 16.0856 -0.0458114 15.294 0.137923C14.2755 0.374873 13.4769 1.15254 13.2186 2.15239H1.14917C0.497286 2.15239 -0.027832 2.73117 0.00121038 3.43309C0.0286829 4.09422 0.564397 4.6027 1.18528 4.6027H13.2088C13.4565 5.62158 14.2626 6.41595 15.294 6.65601C16.0856 6.83974 16.9094 6.83974 17.701 6.65601C18.7328 6.41634 19.5393 5.62197 19.7869 4.6027H23.3034C24.2657 4.6027 25.0408 4.02391 24.9981 3.322H24.9985ZM17.4149 5.44601C16.812 5.58624 16.1841 5.58624 15.5813 5.44601C15.0087 5.31355 14.5616 4.87072 14.4274 4.30398C14.2861 3.70733 14.2861 3.08582 14.4274 2.48917C14.562 1.92282 15.0087 1.48038 15.5813 1.34715C16.1841 1.20731 16.812 1.20731 17.4149 1.34715C17.9871 1.48038 18.4341 1.92243 18.5687 2.48917C18.7104 3.08582 18.7104 3.70733 18.5687 4.30398C18.4345 4.87072 17.9875 5.31316 17.4149 5.44601Z" fill="currentColor" fill-opacity="0.8"/>
<path d="M1.69623 13.8092H5.21271C5.46036 14.8281 6.26687 15.6228 7.29866 15.8625C8.09026 16.0462 8.91405 16.0462 9.70565 15.8625C10.737 15.6224 11.5432 14.8281 11.7908 13.8092H23.8144C24.4352 13.8092 24.971 13.3007 24.9984 12.6396C25.0275 11.9377 24.5024 11.3589 23.8505 11.3589H11.781C11.5228 10.3586 10.7241 9.58097 9.70565 9.3444C8.91405 9.16067 8.09026 9.16067 7.29866 9.3444C6.28022 9.58097 5.48116 10.3586 5.22253 11.3589H1.74961C0.8332 11.3589 0.0423838 11.8673 0.00156748 12.5285C-0.0412112 13.2304 0.733907 13.8092 1.69623 13.8092ZM6.43171 13.5105C6.29003 12.9138 6.29003 12.2923 6.43171 11.6957C6.56632 11.1293 7.01295 10.6869 7.58555 10.5536C8.18838 10.4138 8.81632 10.4138 9.41915 10.5536C9.99136 10.6869 10.4384 11.1289 10.573 11.6957C10.7143 12.2923 10.7143 12.9138 10.573 13.5105C10.4392 14.0772 9.99176 14.5196 9.41915 14.6525C8.81632 14.7927 8.18838 14.7927 7.58555 14.6525C7.01295 14.5196 6.56593 14.0772 6.43171 13.5105Z" fill="currentColor" fill-opacity="0.8"/>
</g>
<defs>
<clipPath id="clip0_163_3994">
<rect width="25" height="16" fill="currentColor"/>
</clipPath>
</defs>
</svg>
