<svg width="17" height="17" viewBox="0 0 17 17" fill="none" xmlns="http://www.w3.org/2000/svg">
<path fill-rule="evenodd" clip-rule="evenodd" d="M5.93023 7.7093V7.90658H2.17442C1.598 7.90658 1.04451 8.13588 0.636512 8.54309C0.229141 8.95127 0.000242124 9.50432 0 10.081V12.8484C0 13.4249 0.229302 13.9783 0.636512 14.3863C1.04469 14.7937 1.59774 15.0226 2.17442 15.0229H8.65051L8.08079 15.593C8.02576 15.648 7.98211 15.7133 7.95232 15.7852C7.92254 15.8571 7.90721 15.9342 7.90721 16.012C7.90721 16.0899 7.92254 16.1669 7.95232 16.2388C7.98211 16.3107 8.02576 16.3761 8.08079 16.4311C8.13583 16.4861 8.20116 16.5298 8.27306 16.5596C8.34497 16.5894 8.42203 16.6047 8.49986 16.6047C8.57769 16.6047 8.65476 16.5894 8.72666 16.5596C8.79856 16.5298 8.8639 16.4861 8.91893 16.4311L10.5003 14.8497C10.5554 14.7947 10.5991 14.7294 10.6289 14.6575C10.6587 14.5856 10.6741 14.5085 10.6741 14.4306C10.6741 14.3528 10.6587 14.2757 10.6289 14.2038C10.5991 14.1319 10.5554 14.0666 10.5003 14.0116L8.91893 12.4302C8.80779 12.319 8.65704 12.2566 8.49986 12.2566C8.34268 12.2566 8.19194 12.319 8.08079 12.4302C7.96965 12.5413 7.90721 12.6921 7.90721 12.8492C7.90721 13.0064 7.96965 13.1572 8.08079 13.2683L8.64891 13.8368H2.17442C1.91241 13.8364 1.66126 13.7321 1.476 13.5469C1.29073 13.3616 1.18646 13.1104 1.18605 12.8484V10.081C1.18646 9.819 1.29073 9.56784 1.476 9.38258C1.66126 9.19731 1.91241 9.09305 2.17442 9.09263H5.93023V9.2907C5.93023 9.76254 6.11767 10.215 6.45131 10.5487C6.78495 10.8823 7.23746 11.0698 7.7093 11.0698H9.2907C9.76254 11.0698 10.215 10.8823 10.5487 10.5487C10.8823 10.215 11.0698 9.76254 11.0698 9.2907V7.7093C11.0698 7.23746 10.8823 6.78495 10.5487 6.45131C10.215 6.11767 9.76254 5.93023 9.2907 5.93023H7.7093C7.23746 5.93023 6.78495 6.11767 6.45131 6.45131C6.11767 6.78495 5.93023 7.23746 5.93023 7.7093ZM7.11628 9.2907V8.49961V7.7093C7.11628 7.55195 7.17874 7.40093 7.29023 7.29023C7.34517 7.23504 7.41048 7.19126 7.4824 7.16141C7.55432 7.13156 7.63143 7.11622 7.7093 7.11628H9.2907C9.44805 7.11628 9.59907 7.17874 9.70977 7.29023C9.82126 7.40093 9.88372 7.55195 9.88372 7.7093V9.2907C9.88372 9.44805 9.82126 9.59907 9.70977 9.70977C9.65483 9.76496 9.58952 9.80874 9.5176 9.83859C9.44568 9.86844 9.36857 9.88378 9.2907 9.88372H7.7093C7.63143 9.88378 7.55432 9.86844 7.4824 9.83859C7.41048 9.80874 7.34517 9.76496 7.29023 9.70977C7.23504 9.65483 7.19126 9.58952 7.16141 9.5176C7.13156 9.44568 7.11622 9.36857 7.11628 9.2907ZM0 1.77907V3.36047C0 3.8323 0.187437 4.28482 0.521077 4.61846C0.854718 4.9521 1.30723 5.13953 1.77907 5.13953H3.36047C3.8323 5.13953 4.28482 4.9521 4.61846 4.61846C4.9521 4.28482 5.13953 3.8323 5.13953 3.36047V3.1624H14.8256C15.0876 3.16281 15.3387 3.26708 15.524 3.45235C15.7093 3.63761 15.8135 3.88876 15.814 4.15077V6.91821C15.8135 7.18021 15.7093 7.43137 15.524 7.61663C15.3387 7.8019 15.0876 7.90616 14.8256 7.90658H13.8857L14.4538 7.33808C14.5088 7.28305 14.5525 7.21771 14.5823 7.14581C14.6121 7.0739 14.6274 6.99684 14.6274 6.91901C14.6274 6.84118 14.6121 6.76411 14.5823 6.69221C14.5525 6.62031 14.5088 6.55497 14.4538 6.49994C14.3988 6.44491 14.3334 6.40125 14.2615 6.37147C14.1896 6.34168 14.1126 6.32635 14.0347 6.32635C13.9569 6.32635 13.8799 6.34168 13.8079 6.37147C13.736 6.40125 13.6707 6.44491 13.6157 6.49994L12.057 8.0586C12.0492 8.06561 12.0416 8.07283 12.0342 8.08027C11.9229 8.19149 11.8605 8.34233 11.8605 8.49961C11.8605 8.51565 11.8611 8.53163 11.8624 8.54751C11.8673 8.60922 11.8819 8.66987 11.9057 8.72724C11.9355 8.79914 11.9792 8.86447 12.0343 8.91947L13.6157 10.5009C13.6707 10.5559 13.736 10.5996 13.8079 10.6293C13.8799 10.6591 13.9569 10.6745 14.0347 10.6745C14.1126 10.6745 14.1896 10.6591 14.2615 10.6293C14.3334 10.5996 14.3988 10.5559 14.4538 10.5009C14.5088 10.4458 14.5525 10.3805 14.5823 10.3086C14.6121 10.2367 14.6274 10.1596 14.6274 10.0818C14.6274 10.004 14.6121 9.9269 14.5823 9.855C14.5525 9.7831 14.5088 9.71776 14.4538 9.66273L13.8841 9.09263H14.8256C15.402 9.09263 15.9555 8.86333 16.3635 8.45612C16.7709 8.04794 16.9998 7.49489 17 6.91821V4.15077C17 3.57435 16.7707 3.02086 16.3635 2.61286C15.9553 2.20549 15.4023 1.97659 14.8256 1.97635H5.13953V1.77907C5.13953 1.30723 4.9521 0.854718 4.61846 0.521077C4.28482 0.187437 3.8323 0 3.36047 0H1.77907C1.30723 0 0.854718 0.187437 0.521077 0.521077C0.187437 0.854718 0 1.30723 0 1.77907ZM3.95349 1.77907L3.95349 2.56937L3.95349 3.36047C3.95349 3.51781 3.89102 3.66884 3.77954 3.77954C3.7246 3.83472 3.65929 3.8785 3.58737 3.90836C3.51545 3.93821 3.43834 3.95355 3.36047 3.95349H1.77907C1.7012 3.95355 1.62409 3.93821 1.55216 3.90836C1.48024 3.8785 1.41494 3.83472 1.36 3.77954C1.30481 3.7246 1.26103 3.65929 1.23118 3.58737C1.20132 3.51545 1.18599 3.43834 1.18605 3.36047V1.77907C1.18605 1.62172 1.24851 1.4707 1.36 1.36C1.41494 1.30481 1.48024 1.26103 1.55216 1.23118C1.62409 1.20132 1.7012 1.18599 1.77907 1.18605H3.36047C3.51781 1.18605 3.66884 1.24851 3.77954 1.36C3.89102 1.4707 3.95349 1.62172 3.95349 1.77907ZM11.8605 13.6395V15.2209C11.8605 15.6928 12.0479 16.1453 12.3815 16.4789C12.7152 16.8126 13.1677 17 13.6395 17H15.2209C15.6928 17 16.1453 16.8126 16.4789 16.4789C16.8126 16.1453 17 15.6928 17 15.2209V13.6395C17 13.1677 16.8126 12.7152 16.4789 12.3815C16.1453 12.0479 15.6928 11.8605 15.2209 11.8605H13.6395C13.1677 11.8605 12.7152 12.0479 12.3815 12.3815C12.0479 12.7152 11.8605 13.1677 11.8605 13.6395ZM13.0465 13.6395C13.0465 13.4822 13.109 13.3312 13.2205 13.2205C13.2754 13.1653 13.3407 13.1215 13.4126 13.0916C13.4846 13.0618 13.5617 13.0465 13.6395 13.0465H15.2209C15.3783 13.0465 15.5293 13.109 15.64 13.2205C15.7515 13.3312 15.814 13.4822 15.814 13.6395V15.2209C15.814 15.3783 15.7515 15.5293 15.64 15.64C15.5851 15.6952 15.5198 15.739 15.4478 15.7688C15.3759 15.7987 15.2988 15.814 15.2209 15.814H13.6395C13.5617 15.814 13.4846 15.7987 13.4126 15.7688C13.3407 15.739 13.2754 15.6952 13.2205 15.64C13.1653 15.5851 13.1215 15.5198 13.0916 15.4478C13.0618 15.3759 13.0465 15.2988 13.0465 15.2209V13.6395Z" fill="white" fill-opacity="0.8"/>
</svg>
