<svg >
<path d="M9.36474 1.42981C8.74992 1.2856 8.11008 1.2856 7.49526 1.42981C7.20911 1.49692 6.94737 1.64259 6.73954 1.85042C6.53171 2.05825 6.38604 2.31998 6.31893 2.60614C6.17472 3.22096 6.17472 3.8608 6.31893 4.47562C6.45552 5.05952 6.91136 5.51451 7.49526 5.65195C8.10988 5.79621 8.75012 5.79621 9.36474 5.65195C9.6509 5.58484 9.91263 5.43917 10.1205 5.23134C10.3283 5.02351 10.474 4.76178 10.5411 4.47562C10.6853 3.861 10.6853 3.22076 10.5411 2.60614C10.474 2.31998 10.3283 2.05825 10.1205 1.85042C9.91263 1.64259 9.6509 1.49692 9.36474 1.42981ZM7.20246 0.183489C8.00958 -0.00582457 8.84956 -0.00582457 9.65669 0.183489C10.175 0.30512 10.649 0.569006 11.0254 0.94544C11.4019 1.32188 11.6658 1.79591 11.7874 2.31419C11.9769 3.12089 11.9769 3.96087 11.7874 4.76842C11.6656 5.28654 11.4017 5.7604 11.0252 6.13668C10.6488 6.51295 10.1749 6.77671 9.65669 6.89827C8.84957 7.08762 8.00958 7.08762 7.20246 6.89827C6.68429 6.77659 6.21039 6.51267 5.8341 6.13623C5.45781 5.75979 5.19408 5.28578 5.07261 4.76757C4.88343 3.96072 4.88343 3.12104 5.07261 2.31419C5.19408 1.79598 5.45781 1.32197 5.8341 0.945527C6.21039 0.569088 6.68429 0.30517 7.20246 0.183489Z" fill="currentColor"/>
<path d="M9.36466 10.8198C8.74984 10.6756 8.10999 10.6756 7.49518 10.8198C7.20902 10.8869 6.94729 11.0326 6.73946 11.2405C6.53163 11.4483 6.38596 11.71 6.31885 11.9962C6.17461 12.611 6.17461 13.2508 6.31885 13.8657C6.45543 14.4495 6.91128 14.9054 7.49518 15.042C8.1098 15.1862 8.75004 15.1862 9.36466 15.042C9.65081 14.9749 9.91255 14.8292 10.1204 14.6214C10.3282 14.4135 10.4739 14.1518 10.541 13.8657C10.6853 13.251 10.6853 12.6108 10.541 11.9962C10.4739 11.71 10.3282 11.4483 10.1204 11.2405C9.91255 11.0326 9.65081 10.8869 9.36466 10.8198ZM7.20237 9.57352C8.00951 9.38427 8.84948 9.38427 9.65661 9.57352C10.1749 9.69515 10.6489 9.95903 11.0254 10.3355C11.4018 10.7119 11.6657 11.1859 11.7873 11.7042C11.9768 12.5109 11.9768 13.3509 11.7873 14.1585C11.6655 14.6766 11.4016 15.1504 11.0252 15.5267C10.6487 15.903 10.1748 16.1667 9.65661 16.2883C8.84949 16.4776 8.0095 16.4776 7.20237 16.2883C6.68425 16.1665 6.2104 15.9026 5.83412 15.5262C5.45785 15.1497 5.19409 14.6758 5.07253 14.1576C4.88321 13.3505 4.88321 12.5105 5.07253 11.7034C5.19423 11.1854 5.45805 10.7116 5.83432 10.3353C6.21058 9.95904 6.68436 9.69522 7.20237 9.57352Z" fill="currentColor"/>
<path d="M18.7546 1.42981C18.1398 1.28557 17.4999 1.28557 16.8851 1.42981C16.5989 1.49692 16.3372 1.64259 16.1294 1.85042C15.9215 2.05825 15.7759 2.31998 15.7088 2.60614C15.5646 3.22096 15.5646 3.8608 15.7088 4.47562C15.8454 5.05952 16.3012 5.51451 16.8851 5.65195C17.4997 5.79621 18.14 5.79621 18.7546 5.65195C19.0407 5.58484 19.3025 5.43917 19.5103 5.23134C19.7181 5.02351 19.8638 4.76178 19.9309 4.47562C20.0752 3.861 20.0752 3.22076 19.9309 2.60614C19.8638 2.31998 19.7181 2.05825 19.5103 1.85042C19.3025 1.64259 19.0407 1.49692 18.7546 1.42981ZM16.5923 0.183489C17.3994 -0.00582456 18.2394 -0.00582456 19.0465 0.183489C19.5648 0.30512 20.0388 0.569006 20.4153 0.94544C20.7917 1.32187 21.0556 1.79591 21.1772 2.31419C21.3667 3.12089 21.3667 3.96087 21.1772 4.76842C21.0555 5.28654 20.7915 5.7604 20.4151 6.13667C20.0387 6.51295 19.5647 6.77671 19.0465 6.89827C18.2394 7.08761 17.3994 7.08761 16.5923 6.89827C16.0742 6.7765 15.6003 6.51255 15.224 6.13613C14.8478 5.7597 14.584 5.28574 14.4624 4.76757C14.2732 3.96072 14.2732 3.12104 14.4624 2.31419C14.584 1.79602 14.8478 1.32206 15.224 0.945633C15.6003 0.569209 16.0742 0.305261 16.5923 0.183489ZM18.7546 10.8199C18.1398 10.6757 17.4999 10.6757 16.8851 10.8199C16.599 10.8871 16.3373 11.0328 16.1295 11.2406C15.9217 11.4485 15.776 11.7101 15.7088 11.9962C15.5646 12.6111 15.5646 13.2509 15.7088 13.8657C15.8454 14.4496 16.3012 14.9055 16.8851 15.0421C17.4997 15.1863 18.14 15.1863 18.7546 15.0421C19.0407 14.9749 19.3025 14.8293 19.5103 14.6214C19.7181 14.4136 19.8638 14.1519 19.9309 13.8657C20.0752 13.2511 20.0752 12.6109 19.9309 11.9962C19.8637 11.7101 19.718 11.4485 19.5102 11.2406C19.3024 11.0328 19.0407 10.8871 18.7546 10.8199ZM16.5923 9.5736C17.3994 9.38435 18.2394 9.38435 19.0465 9.5736C19.5648 9.69523 20.0388 9.95911 20.4153 10.3355C20.7917 10.712 21.0556 11.186 21.1772 11.7043C21.3667 12.511 21.3667 13.351 21.1772 14.1585C21.0555 14.6767 20.7915 15.1505 20.4151 15.5268C20.0387 15.9031 19.5647 16.1668 19.0465 16.2884C18.2394 16.4777 17.3994 16.4777 16.5923 16.2884C16.0742 16.1666 15.6003 15.9027 15.224 15.5262C14.8478 15.1498 14.584 14.6758 14.4624 14.1577C14.2731 13.3506 14.2731 12.5106 14.4624 11.7034C14.5841 11.1854 14.848 10.7116 15.2242 10.3354C15.6005 9.95912 16.0743 9.6953 16.5923 9.5736Z" fill="currentColor"/>
</svg>
