<svg width="32" height="30" viewBox="0 0 32 30" fill="none" xmlns="http://www.w3.org/2000/svg">
<path d="M29.4412 11.9231C29.0963 11.701 28.7278 11.5178 28.3426 11.3768C27.752 5.08623 22.4424 0.146729 16 0.146729C9.55769 0.146729 4.24806 5.08617 3.65744 11.3767C3.27239 11.5176 2.90415 11.7007 2.55944 11.9227C0.956813 12.9545 0 14.7075 0 16.612V18.4133C0 21.4871 2.50075 23.9879 5.57463 23.9879H6.83162C7.80825 23.9879 8.60281 23.1934 8.60281 22.2167V12.8085C8.60281 11.8319 7.80825 11.0373 6.83162 11.0373H5.57463C5.54319 11.0373 5.51187 11.0385 5.48044 11.0389C6.21394 5.89004 10.6514 1.91792 16 1.91792C21.3486 1.91792 25.7861 5.88998 26.5196 11.039C26.4881 11.0385 26.4568 11.0374 26.4254 11.0374H25.1684C24.1917 11.0374 23.3972 11.832 23.3972 12.8086V22.2167C23.3972 23.1934 24.1917 23.9879 25.1684 23.9879H26.3579C25.6111 26.3583 23.3925 28.082 20.7787 28.082C20.2896 28.082 19.8931 28.4785 19.8931 28.9676C19.8931 29.4567 20.2896 29.8532 20.7787 29.8532C24.4866 29.8532 27.5837 27.1907 28.2601 23.6774C30.4354 22.917 32 20.8446 32 18.4133V16.612C32 14.7075 31.0433 12.9546 29.4412 11.9231ZM5.57463 12.8086H6.83162L6.83275 22.2167L6.83162 22.2167H5.57463C3.47744 22.2167 1.77125 20.5105 1.77125 18.4134V16.612C1.77125 15.3125 2.42438 14.1164 3.51863 13.4118C4.13088 13.0172 4.84188 12.8086 5.57463 12.8086ZM30.2288 18.4133C30.2288 20.5105 28.5227 22.2167 26.4254 22.2167H25.1684V12.8085H26.4254C27.1582 12.8085 27.8692 13.0172 28.4821 13.4121C29.5759 14.1163 30.2288 15.3125 30.2288 16.6119V18.4133Z" fill="white" fill-opacity="0.5"/>
</svg>
