<svg viewBox="0 0 20 20" fill="none" >
<path d="M14.1551 19.9975H5.84372C4.9038 20.0325 3.98809 19.695 3.29553 19.0586C2.60297 18.4222 2.18952 17.5382 2.14502 16.5987V12.143C2.14502 11.9536 2.22025 11.772 2.35416 11.6381C2.48807 11.5042 2.66968 11.4289 2.85906 11.4289C3.04843 11.4289 3.23005 11.5042 3.36395 11.6381C3.49786 11.772 3.57309 11.9536 3.57309 12.143V16.5987C3.61697 17.1595 3.87972 17.6806 4.30457 18.0493C4.72943 18.4181 5.28228 18.6049 5.84372 18.5694H14.1551C14.7165 18.6049 15.2694 18.4181 15.6942 18.0493C16.1191 17.6806 16.3818 17.1595 16.4257 16.5987V12.143C16.4257 11.9536 16.5009 11.772 16.6348 11.6381C16.7687 11.5042 16.9504 11.4289 17.1397 11.4289C17.3291 11.4289 17.5107 11.5042 17.6446 11.6381C17.7785 11.772 17.8538 11.9536 17.8538 12.143V16.5987C17.8093 17.5382 17.3958 18.4222 16.7033 19.0586C16.0107 19.695 15.095 20.0325 14.1551 19.9975ZM19.7888 10.5078C19.8557 10.4414 19.9088 10.3625 19.9451 10.2754C19.9813 10.1884 20 10.0951 20 10.0008C20 9.90658 19.9813 9.81324 19.9451 9.72623C19.9088 9.63922 19.8557 9.56024 19.7888 9.49386L10.5064 0.211215C10.44 0.144288 10.361 0.0911667 10.274 0.0549154C10.187 0.018664 10.0937 0 9.99939 0C9.90513 0 9.8118 0.018664 9.72479 0.0549154C9.63778 0.0911667 9.55881 0.144288 9.49243 0.211215L0.209991 9.49386C0.0755361 9.62832 0 9.81069 0 10.0008C0 10.191 0.0755361 10.3734 0.209991 10.5078C0.344446 10.6423 0.526807 10.7178 0.716955 10.7178C0.907103 10.7178 1.08946 10.6423 1.22392 10.5078L9.99939 1.725L18.7749 10.5078C18.8412 10.5747 18.9202 10.6279 19.0072 10.6641C19.0942 10.7004 19.1876 10.719 19.2818 10.719C19.3761 10.719 19.4694 10.7004 19.5564 10.6641C19.6434 10.6279 19.7224 10.5747 19.7888 10.5078Z" fill="currentColor"/>
</svg>
