<svg width="11" height="19" viewBox="0 0 11 19" fill="none" xmlns="http://www.w3.org/2000/svg">
<path d="M1.27634 5.12231L2.65412 5.12231C2.74384 5.12231 2.82988 5.15795 2.89332 5.22139C2.95675 5.28483 2.99239 5.37087 2.99239 5.46059C2.99239 5.5503 2.95675 5.63634 2.89332 5.69978C2.82988 5.76322 2.74384 5.79886 2.65412 5.79886L1.27634 5.79886C1.1173 5.79912 0.964856 5.86245 0.852428 5.97494C0.740001 6.08743 0.676767 6.23991 0.676588 6.39895L0.676587 17.6668C0.676766 17.8258 0.74 17.9783 0.852427 18.0908C0.964855 18.2033 1.1173 18.2666 1.27634 18.2669L9.64382 18.2669C9.8028 18.2666 9.9552 18.2033 10.0676 18.0909C10.18 17.9785 10.2433 17.8261 10.2436 17.6671L10.2436 6.39929C10.2435 6.24019 10.1803 6.08762 10.0679 5.97506C9.95542 5.86249 9.80292 5.79913 9.64382 5.79886L8.26604 5.79886C8.17633 5.79886 8.09029 5.76322 8.02685 5.69978C7.96341 5.63634 7.92777 5.5503 7.92777 5.46059C7.92777 5.37087 7.96341 5.28483 8.02685 5.22139C8.09029 5.15795 8.17633 5.12231 8.26604 5.12231L9.64382 5.12231C9.98224 5.12276 10.3067 5.25742 10.5459 5.49675C10.7852 5.73608 10.9198 6.06053 10.9201 6.39895L10.9201 17.6668C10.9199 18.0052 10.7853 18.3297 10.546 18.5691C10.3067 18.8084 9.98227 18.943 9.64382 18.9434L1.27634 18.9434C0.937957 18.943 0.613533 18.8085 0.374259 18.5692C0.134984 18.3299 0.000402278 18.0055 4.46797e-05 17.6671L4.56647e-05 6.39929C0.000313677 6.06081 0.134844 5.73627 0.374119 5.49687C0.613394 5.25746 0.937868 5.12276 1.27634 5.12231Z" fill="white"/>
<path d="M6.13657 6.8297L7.16729 6.8297C7.257 6.8297 7.34304 6.86534 7.40648 6.92878C7.46992 6.99222 7.50556 7.07826 7.50556 7.16797C7.50556 7.25769 7.46992 7.34373 7.40648 7.40717C7.34304 7.4706 7.257 7.50624 7.16729 7.50624L3.75278 7.50624C3.66306 7.50624 3.57702 7.4706 3.51358 7.40716C3.45014 7.34373 3.4145 7.25769 3.4145 7.16797C3.4145 7.07826 3.45014 6.99222 3.51358 6.92878C3.57702 6.86534 3.66306 6.8297 3.75278 6.8297L4.78383 6.8297L0.0676488 0.541235C0.0409956 0.505697 0.0216035 0.465257 0.0105781 0.422224C-0.000446353 0.379192 -0.00288776 0.334409 0.00339506 0.290433C0.00967691 0.246457 0.024559 0.204149 0.0471926 0.165925C0.0698252 0.1277 0.0997648 0.0943082 0.135303 0.0676547C0.170841 0.0410013 0.211282 0.0216086 0.254314 0.0105838C0.297347 -0.000441038 0.342129 -0.00288202 0.386105 0.00340026C0.43008 0.00968254 0.472388 0.024565 0.510612 0.047198C0.548837 0.0698309 0.58223 0.0997712 0.608884 0.135309L5.46003 6.60475L10.3115 0.13531C10.3653 0.0635379 10.4455 0.0160888 10.5343 0.00340115C10.6231 -0.00928648 10.7133 0.0138266 10.7851 0.0676556C10.8569 0.121485 10.9043 0.201621 10.917 0.290434C10.9297 0.379248 10.9066 0.469463 10.8528 0.541236L6.13657 6.8297ZM8.60426 15.2777C8.60426 15.3674 8.56862 15.4534 8.50519 15.5169C8.44175 15.5803 8.35571 15.616 8.26599 15.616C8.17628 15.616 8.09024 15.5803 8.0268 15.5169C7.96336 15.4534 7.92772 15.3674 7.92772 15.2777C7.92541 14.802 7.78593 14.337 7.52601 13.9386C7.2661 13.5401 6.89678 13.2251 6.46233 13.0312C6.15477 13.1986 5.81019 13.2863 5.46003 13.2863C5.10987 13.2863 4.76529 13.1986 4.45773 13.0312C4.02328 13.2251 3.65396 13.5401 3.39405 13.9386C3.13413 14.337 2.99466 14.802 2.99234 15.2777C2.99234 15.3674 2.9567 15.4534 2.89326 15.5169C2.82983 15.5803 2.74379 15.616 2.65407 15.616C2.56436 15.616 2.47831 15.5803 2.41488 15.5169C2.35144 15.4534 2.3158 15.3674 2.3158 15.2777C2.31765 14.7278 2.46303 14.188 2.73754 13.7116C3.01206 13.2352 3.4062 12.8387 3.88098 12.5614C2.71665 11.2793 3.70948 9.08056 5.46003 9.11946C7.21025 9.08157 8.20375 11.2776 7.03874 12.5617C7.51359 12.839 7.9078 13.2355 8.18237 13.7119C8.45695 14.1883 8.60238 14.7278 8.60426 15.2777ZM5.46003 9.79634C5.09037 9.80207 4.73779 9.95294 4.47841 10.2164C4.21902 10.4798 4.07363 10.8347 4.07363 11.2044C4.07363 11.5741 4.21902 11.929 4.47841 12.1924C4.73779 12.4559 5.09037 12.6067 5.46003 12.6124C5.82969 12.6067 6.18227 12.4559 6.44166 12.1924C6.70104 11.929 6.84643 11.5741 6.84643 11.2044C6.84643 10.8347 6.70104 10.4798 6.44166 10.2164C6.18227 9.95294 5.82969 9.80207 5.46003 9.79634Z" fill="white"/>
</svg>
