<svg viewBox="0 0 20 16" fill="none">
<g clip-path="url(#clip0_163_3991)">
<path d="M19.3638 3.10532H9.20435C8.8608 3.10532 8.56417 2.84592 8.54866 2.50879C8.53275 2.15056 8.82342 1.85522 9.18407 1.85522H19.3435C19.6871 1.85522 19.9837 2.11462 19.9992 2.45175C20.0151 2.80998 19.7245 3.10532 19.3638 3.10532ZM15.8647 5.44924H9.20435C8.8608 5.44924 8.56417 5.18984 8.54866 4.85271C8.53275 4.49448 8.82342 4.19915 9.18407 4.19915H15.8444C16.1879 4.19915 16.4846 4.45854 16.5001 4.79567C16.516 5.1539 16.2253 5.44924 15.8647 5.44924ZM19.3638 12.0122H9.20435C8.8608 12.0122 8.56417 11.7528 8.54866 11.4157C8.53275 11.0575 8.82342 10.7621 9.18407 10.7621H19.3435C19.6871 10.7621 19.9837 11.0215 19.9992 11.3587C20.0151 11.7169 19.7245 12.0122 19.3638 12.0122ZM15.8647 14.5124H9.20435C8.8608 14.5124 8.56417 14.253 8.54866 13.9159C8.53275 13.5576 8.82342 13.2623 9.18407 13.2623H15.8444C16.1879 13.2623 16.4846 13.5217 16.5001 13.8588C16.516 14.2171 16.2253 14.5124 15.8647 14.5124Z" fill="currentColor"/>
<path fill-rule="evenodd" clip-rule="evenodd" d="M4.40647 1.3559C3.79571 1.21526 3.1595 1.21526 2.54874 1.3559C1.9686 1.4895 1.5157 1.93446 1.37971 2.50442C1.23656 3.10446 1.23656 3.72951 1.37971 4.32955C1.5153 4.89952 1.9686 5.34369 2.54874 5.47807C3.1595 5.6191 3.79571 5.6191 4.40647 5.47807C4.98661 5.34447 5.43951 4.89952 5.5755 4.32955C5.71904 3.72951 5.71904 3.10446 5.5755 2.50442C5.43951 1.93446 4.98661 1.4895 4.40647 1.3559ZM2.25807 0.139012C3.06009 -0.0457675 3.89472 -0.0457675 4.69674 0.139012C5.74728 0.381217 6.56759 1.18714 6.81412 2.21924C7.00259 3.0068 7.00259 3.82678 6.81412 4.61512C6.56719 5.64684 5.74728 6.45236 4.69674 6.69457C3.89472 6.87935 3.06009 6.87935 2.25807 6.69457C1.20793 6.45197 0.388017 5.64645 0.141487 4.61434C-0.0465925 3.82678 -0.0465925 3.0068 0.141487 2.21924C0.388017 1.18714 1.20753 0.381607 2.25807 0.139012ZM4.40686 10.523C3.7961 10.3823 3.1599 10.3823 2.54914 10.523C1.96939 10.657 1.51649 11.1015 1.3801 11.6715C1.23696 12.2715 1.23696 12.8966 1.3801 13.4966C1.5157 14.0666 1.96899 14.5115 2.54914 14.6452C3.1599 14.7862 3.7961 14.7862 4.40686 14.6452C4.98701 14.5115 5.43991 14.0666 5.5759 13.4966C5.71944 12.8966 5.71944 12.2715 5.5759 11.6715C5.43951 11.1019 4.98701 10.657 4.40686 10.523ZM2.25807 9.30609C3.06009 9.12131 3.89472 9.12131 4.69674 9.30609C5.74728 9.54829 6.56759 10.3542 6.81412 11.3863C7.00259 12.1739 7.00259 12.9939 6.81412 13.7822C6.56719 14.8139 5.74728 15.6194 4.69674 15.8616C3.89472 16.0464 3.06009 16.0464 2.25807 15.8616C1.20793 15.6191 0.388017 14.8135 0.141487 13.7814C-0.0465925 12.9935 -0.0465925 12.1735 0.141487 11.3855C0.388017 10.3538 1.20793 9.54868 2.25807 9.30609Z" fill="currentColor"/>
</g>
<defs>
<clipPath id="clip0_163_3991">
<rect width="20" height="16" fill="white"/>
</clipPath>
</defs>
</svg>
