<svg width="18" height="13" viewBox="0 0 18 13" fill="none" xmlns="http://www.w3.org/2000/svg">
<path d="M0.750256 11.5977C0.698115 11.5974 0.647145 11.5822 0.603348 11.5539C0.559552 11.5256 0.524752 11.4854 0.503046 11.438C0.48134 11.3906 0.473633 11.338 0.48083 11.2863C0.488027 11.2347 0.509831 11.1862 0.543672 11.1465L4.86201 6.03989C4.88509 6.01264 4.91331 5.9902 4.94507 5.97386C4.97682 5.95752 5.01148 5.9476 5.04707 5.94465C5.08266 5.94171 5.11848 5.9458 5.15249 5.9567C5.1865 5.9676 5.21803 5.98509 5.24527 6.00817C5.27252 6.03126 5.29496 6.05948 5.3113 6.09123C5.32764 6.12299 5.33756 6.15765 5.34051 6.19324C5.34345 6.22883 5.33936 6.26465 5.32846 6.29866C5.31756 6.33266 5.30007 6.36419 5.27699 6.39144L0.956841 11.4981C0.931919 11.5289 0.900463 11.5539 0.864741 11.5711C0.829018 11.5883 0.789918 11.5974 0.750256 11.5977Z" fill="white"/>
<path d="M16.273 12.1812H1.72516C1.26745 12.1807 0.828655 11.9986 0.505177 11.6748C0.181699 11.3509 -2.51983e-07 10.912 0 10.4542L0 1.72516C0.0004797 1.26777 0.182391 0.829243 0.505817 0.505817C0.829243 0.182391 1.26777 0.0004797 1.72516 0L16.273 0C16.7306 0.000478618 17.1693 0.182332 17.493 0.505706C17.8167 0.829081 17.999 1.2676 18 1.72516V10.4542C17.9995 10.9121 17.8174 11.3511 17.4937 11.6749C17.1699 11.9986 16.7309 12.1807 16.273 12.1812ZM1.72516 0.543642C1.41195 0.544122 1.1117 0.668756 0.89023 0.89023C0.668756 1.1117 0.544122 1.41195 0.543642 1.72516V10.4542C0.54412 10.7676 0.668697 11.0681 0.890119 11.2898C1.11154 11.5116 1.41178 11.6366 1.72516 11.6376H16.273C16.5867 11.6371 16.8874 11.5123 17.1092 11.2905C17.3311 11.0686 17.4559 10.7679 17.4564 10.4542V1.72516C17.4554 1.41178 17.3304 1.11154 17.1086 0.890119C16.8868 0.668697 16.5864 0.54412 16.273 0.543642H1.72516Z" fill="white"/>
<path d="M8.99916 8.34492C8.93247 8.34435 8.86819 8.31993 8.81795 8.27605L0.569084 0.906077C0.515255 0.858016 0.482724 0.790541 0.478646 0.718494C0.474568 0.646447 0.499277 0.575732 0.547338 0.521903C0.595399 0.468075 0.662875 0.435544 0.734921 0.431466C0.806968 0.427387 0.877683 0.452097 0.931512 0.500158L8.99916 7.70886L17.0686 0.507406C17.1225 0.459345 17.1932 0.434636 17.2652 0.438714C17.3373 0.442792 17.4047 0.475324 17.4528 0.529152C17.5009 0.58298 17.5256 0.653696 17.5215 0.725743C17.5174 0.797789 17.4849 0.865265 17.4311 0.913326L9.18038 8.27605C9.13049 8.3205 9.06598 8.34501 8.99916 8.34492ZM17.2498 11.6992C17.2086 11.6996 17.1677 11.6907 17.1304 11.6732C17.093 11.6556 17.0602 11.6298 17.0342 11.5977L12.7213 6.49834C12.6747 6.44332 12.6518 6.37202 12.6578 6.30014C12.6637 6.22827 12.698 6.1617 12.753 6.11508C12.808 6.06846 12.8793 6.04561 12.9512 6.05156C13.0231 6.0575 13.0897 6.09176 13.1363 6.14679L17.4564 11.2516C17.4892 11.2913 17.51 11.3395 17.5166 11.3906C17.5232 11.4416 17.5153 11.4935 17.4937 11.5403C17.4721 11.587 17.4378 11.6267 17.3947 11.6548C17.3515 11.683 17.3013 11.6983 17.2498 11.6992Z" fill="white"/>
</svg>
