<svg viewBox="0 0 28 16" fill="none" >
<path d="M25.558 15.9741H2.43431C2.1122 15.9748 1.79592 15.9025 1.51936 15.7649C1.24281 15.6273 1.01639 15.4295 0.864387 15.1929C0.712381 14.9562 0.640511 14.6895 0.65648 14.4215C0.672449 14.1534 0.775653 13.8939 0.955035 13.671L6.82805 6.3315C7.14788 5.92963 7.57124 5.59225 8.06729 5.34394C8.56334 5.09563 9.1196 4.94263 9.69557 4.89608C10.524 4.82437 11.3581 4.97735 12.0738 5.33228L13.9599 1.66372C14.1975 1.19466 14.5927 0.792782 15.0978 0.50639C15.603 0.219997 16.1967 0.0612795 16.8075 0.0493164C18.0492 0.0540577 19.1999 0.582709 19.7646 1.52267L27.1496 13.831C27.427 14.2933 27.3971 14.8326 27.0714 15.2724C26.7456 15.7121 26.1795 15.9752 25.5594 15.9752L25.558 15.9741ZM3.09856 14.1961H24.9819L17.8543 2.31683C17.7686 2.16183 17.6285 2.0321 17.4526 1.94472C17.2766 1.85733 17.073 1.8164 16.8686 1.82729C16.665 1.83047 16.467 1.88292 16.2985 1.97826C16.13 2.07359 15.9985 2.2077 15.9199 2.36424L13.7494 6.58516L16.0835 8.53145C16.1826 8.61403 16.2612 8.71206 16.3148 8.81995C16.3684 8.92784 16.396 9.04348 16.396 9.16026C16.396 9.27704 16.3684 9.39268 16.3148 9.50057C16.2612 9.60846 16.1826 9.70649 16.0835 9.78907C15.9844 9.87165 15.8667 9.93715 15.7373 9.98184C15.6078 10.0265 15.469 10.0495 15.3289 10.0495C15.1888 10.0495 15.05 10.0265 14.9205 9.98184C14.7911 9.93715 14.6734 9.87165 14.5743 9.78907L11.758 7.44214L11.7025 7.39591L11.3384 7.09247C11.1513 6.93848 10.926 6.82057 10.6782 6.74704C10.4305 6.67352 10.1664 6.64618 9.90466 6.66694C9.64286 6.68819 9.39005 6.75784 9.16466 6.87082C8.93926 6.98381 8.74695 7.13728 8.60176 7.32006L3.09714 14.1996L3.09856 14.1961Z" fill="currentColor"/>
</svg>
