<svg viewBox="0 0 20 22" fill="none">
<path fill-rule="evenodd" clip-rule="evenodd" d="M5.53641 3.92427C5.59234 4.00825 5.63113 4.10239 5.65058 4.20133C5.67002 4.30027 5.66973 4.40206 5.64973 4.50089C5.62973 4.59971 5.5904 4.69364 5.534 4.7773C5.4776 4.86096 5.40523 4.93271 5.32103 4.98846C3.80652 5.99109 2.65587 7.45363 2.03944 9.15954C1.423 10.8654 1.37354 12.7241 1.89838 14.4602C2.42323 16.1963 3.49447 17.7177 4.95353 18.7991C6.41258 19.8805 8.18188 20.4644 9.99949 20.4644C11.8171 20.4644 13.5864 19.8805 15.0455 18.7991C16.5045 17.7177 17.5757 16.1963 18.1006 14.4602C18.6254 12.7241 18.576 10.8654 17.9595 9.15954C17.3431 7.45363 16.1925 5.99109 14.6779 4.98846C14.5079 4.87583 14.3897 4.70044 14.3493 4.50087C14.3089 4.30129 14.3497 4.09389 14.4626 3.92427C14.5755 3.75466 14.7513 3.63673 14.9513 3.59643C15.1513 3.55613 15.3592 3.59676 15.5292 3.70939C16.9046 4.61909 18.0328 5.8545 18.8129 7.30526C19.5931 8.75603 20.0009 10.377 20 12.0233C20 17.5336 15.5231 22.0001 10 22.0001C4.47692 22.0001 1.28534e-06 17.5336 1.28534e-06 12.0233C-0.00083551 10.3772 0.406924 8.75656 1.18687 7.306C1.96682 5.85543 3.09468 4.62014 4.46974 3.71041C4.55385 3.65456 4.64817 3.6158 4.7473 3.59632C4.84642 3.57684 4.94843 3.57704 5.04748 3.5969C5.14653 3.61676 5.24069 3.65589 5.32459 3.71206C5.40848 3.76823 5.48046 3.84034 5.53641 3.92427Z" fill="currentColor"/>
<path fill-rule="evenodd" clip-rule="evenodd" d="M9.99994 0C10.101 0 10.201 0.0198505 10.2943 0.0584181C10.3876 0.0969856 10.4724 0.153515 10.5439 0.224779C10.6153 0.296042 10.672 0.380644 10.7106 0.473755C10.7493 0.566865 10.7692 0.66666 10.7692 0.767442V8.95349C10.7692 9.15703 10.6881 9.35223 10.5439 9.49615C10.3996 9.64008 10.204 9.72093 9.99994 9.72093C9.79593 9.72093 9.60027 9.64008 9.45602 9.49615C9.31176 9.35223 9.23071 9.15703 9.23071 8.95349V0.767442C9.23071 0.563904 9.31176 0.368702 9.45602 0.224779C9.60027 0.0808553 9.79593 0 9.99994 0Z" fill="currentColor"/>
</svg>
