<svg viewBox="0 0 17 20" fill="none">
<path d="M13.0059 -0.00012207C14.8932 -0.00012207 16.4285 1.53526 16.4285 3.42249V15.7439C16.4285 17.6311 14.8932 19.1665 13.0059 19.1665H3.42261C1.53538 19.1665 0 17.6311 0 15.7439V3.42249C0 1.53526 1.53538 -0.00012207 3.42261 -0.00012207H13.0059ZM1.36904 15.7439C1.36904 16.8761 2.29041 17.7975 3.42261 17.7975H13.0059C14.1381 17.7975 15.0595 16.8761 15.0595 15.7439V3.42249C15.0595 2.29029 14.1381 1.36892 13.0059 1.36892H3.42261C2.29041 1.36892 1.36904 2.29029 1.36904 3.42249V15.7439Z" fill="currentColor"/>
<path d="M6.8452 8.89865H12.3214C12.5029 8.89865 12.677 8.97077 12.8054 9.09914C12.9338 9.22752 13.0059 9.40163 13.0059 9.58317C13.0059 9.76472 12.9338 9.93883 12.8054 10.0672C12.677 10.1956 12.5029 10.2677 12.3214 10.2677H6.8452C6.66366 10.2677 6.48955 10.1956 6.36117 10.0672C6.2328 9.93883 6.16068 9.76472 6.16068 9.58317C6.16068 9.40163 6.2328 9.22752 6.36117 9.09914C6.48955 8.97077 6.66366 8.89865 6.8452 8.89865ZM6.8452 12.3213H12.3214C12.5029 12.3213 12.677 12.3934 12.8054 12.5218C12.9338 12.6501 13.0059 12.8242 13.0059 13.0058C13.0059 13.1873 12.9338 13.3614 12.8054 13.4898C12.677 13.6182 12.5029 13.6903 12.3214 13.6903H6.8452C6.66366 13.6903 6.48955 13.6182 6.36117 13.4898C6.2328 13.3614 6.16068 13.1873 6.16068 13.0058C6.16068 12.8242 6.2328 12.6501 6.36117 12.5218C6.48955 12.3934 6.66366 12.3213 6.8452 12.3213ZM6.8452 5.47604H12.3214C12.5029 5.47604 12.677 5.54816 12.8054 5.67653C12.9338 5.8049 13.0059 5.97901 13.0059 6.16056C13.0059 6.34211 12.9338 6.51622 12.8054 6.64459C12.677 6.77296 12.5029 6.84508 12.3214 6.84508H6.8452C6.66366 6.84508 6.48955 6.77296 6.36117 6.64459C6.2328 6.51622 6.16068 6.34211 6.16068 6.16056C6.16068 5.97901 6.2328 5.8049 6.36117 5.67653C6.48955 5.54816 6.66366 5.47604 6.8452 5.47604ZM4.12081 12.3213C4.30235 12.3213 4.47646 12.3934 4.60484 12.5218C4.73321 12.6501 4.80533 12.8242 4.80533 13.0058C4.80533 13.1873 4.73321 13.3614 4.60484 13.4898C4.47646 13.6182 4.30235 13.6903 4.12081 13.6903H4.11396C3.7361 13.6903 3.43286 13.3836 3.43286 13.0058C3.43286 12.6279 3.74295 12.3213 4.12081 12.3213ZM4.12081 8.89865C4.30235 8.89865 4.47646 8.97077 4.60484 9.09914C4.73321 9.22752 4.80533 9.40163 4.80533 9.58317C4.80533 9.76472 4.73321 9.93883 4.60484 10.0672C4.47646 10.1956 4.30235 10.2677 4.12081 10.2677H4.11396C3.7361 10.2677 3.43286 9.96103 3.43286 9.58317C3.43286 9.20532 3.74295 8.89865 4.12081 8.89865ZM4.12081 5.47604C4.30235 5.47604 4.47646 5.54816 4.60484 5.67653C4.73321 5.8049 4.80533 5.97901 4.80533 6.16056C4.80533 6.34211 4.73321 6.51622 4.60484 6.64459C4.47646 6.77296 4.30235 6.84508 4.12081 6.84508H4.11396C3.7361 6.84508 3.43286 6.53842 3.43286 6.16056C3.43286 5.7827 3.74295 5.47604 4.12081 5.47604Z" fill="currentColor"/>
</svg>
