<svg width="18" height="18" viewBox="0 0 18 18" fill="none" xmlns="http://www.w3.org/2000/svg">
<path d="M17.2189 12.7981C16.7179 12.3866 16.1796 11.9505 15.675 11.5413C15.1657 11.1281 14.5199 10.9209 13.8653 10.9607C13.2107 11.0005 12.5949 11.2844 12.1394 11.7564C12.05 11.858 11.9408 11.9404 11.8185 11.9983C11.6962 12.0563 11.5633 12.0886 11.428 12.0934C11.2928 12.0981 11.158 12.0752 11.0319 12.026C10.9058 11.9769 10.791 11.9024 10.6947 11.8073L6.19415 7.30611C6.0994 7.21028 6.02515 7.09616 5.97594 6.9707C5.92673 6.84524 5.90359 6.71106 5.90792 6.57636C5.91225 6.44166 5.94396 6.30926 6.00113 6.18722C6.05829 6.06518 6.13971 5.95606 6.24042 5.86652C6.7142 5.41114 6.9997 4.79441 7.04039 4.13848C7.08108 3.48255 6.87398 2.83526 6.46012 2.3248C6.05733 1.82774 5.61393 1.28074 5.20416 0.78134C5.0013 0.537153 4.74723 0.340579 4.45995 0.205553C4.17266 0.0705258 3.8592 0.000350776 3.54177 1.31167e-06C3.22435 -0.000348153 2.91073 0.0691365 2.62315 0.20353C2.33557 0.337924 2.08106 0.533938 1.87767 0.777678C-0.218485 2.92774 -0.819669 6.68153 1.42595 8.80995C2.52129 10.2885 3.7134 11.6927 4.99444 13.0135C6.31553 14.2904 7.71766 15.4807 9.19208 16.5769C9.9474 17.3617 10.9564 17.8534 12.0399 17.9645C12.8825 18.0546 13.7346 17.9726 14.5445 17.7235C15.3545 17.4744 16.1054 17.0633 16.7518 16.5153L17.2212 16.1258C17.4651 15.9225 17.6614 15.668 17.796 15.3803C17.9306 15.0927 18.0002 14.779 18 14.4614C17.9998 14.1438 17.9297 13.8302 17.7947 13.5427C17.6597 13.2553 17.4631 13.0011 17.2189 12.7981ZM16.7974 15.6121C14.895 17.4805 11.5505 18.108 9.65478 16.0971C8.18767 14.9981 6.78855 13.8112 5.46514 12.5428C4.20138 11.2405 3.02633 9.85495 1.94791 8.39545C0.087433 6.66854 0.37238 3.59959 1.99917 1.67359C2.39197 1.16521 2.82871 0.633519 3.53842 0.658489C4.69818 0.66315 5.22579 2.0225 5.94216 2.74363C6.25114 3.12552 6.40541 3.60956 6.3744 4.09984C6.34339 4.59012 6.12936 5.05086 5.77472 5.39076C5.61144 5.54216 5.48027 5.72485 5.38901 5.92797C5.29775 6.13108 5.24825 6.35048 5.24347 6.57312C5.23869 6.79575 5.27871 7.01707 5.36117 7.22392C5.44363 7.43077 5.56683 7.61893 5.72345 7.7772L10.224 12.2784C10.3824 12.4352 10.5708 12.5585 10.7778 12.6409C10.9848 12.7234 11.2063 12.7633 11.4291 12.7584C11.6519 12.7534 11.8714 12.7037 12.0746 12.6122C12.2778 12.5206 12.4605 12.3891 12.6118 12.2255C12.9516 11.8715 13.4119 11.658 13.9016 11.6272C14.3912 11.5964 14.8747 11.7505 15.2562 12.059C15.7598 12.4675 16.2968 12.9027 16.7968 13.3128C16.9656 13.4531 17.1014 13.6287 17.1947 13.8274C17.2879 14.0261 17.3363 14.2428 17.3364 14.4623C17.3364 14.6817 17.2882 14.8985 17.195 15.0972C17.1019 15.296 16.9661 15.4717 16.7974 15.6121Z" fill="white"/>
</svg>
