<svg width="32" height="32" viewBox="0 0 32 32" fill="none" xmlns="http://www.w3.org/2000/svg">
<path d="M28.6667 24H24.6667C24.4899 24 24.3203 23.9298 24.1953 23.8047C24.0702 23.6797 24 23.5101 24 23.3333C24 23.1565 24.0702 22.987 24.1953 22.8619C24.3203 22.7369 24.4899 22.6667 24.6667 22.6667H28.6667C29.7693 22.6667 30.6667 21.7693 30.6667 20.6667V11.3333C30.6667 10.2307 29.7693 9.33333 28.6667 9.33333H3.33333C2.23067 9.33333 1.33333 10.2307 1.33333 11.3333V20.6667C1.33333 21.7693 2.23067 22.6667 3.33333 22.6667H7.33333C7.51014 22.6667 7.67971 22.7369 7.80474 22.8619C7.92976 22.987 8 23.1565 8 23.3333C8 23.5101 7.92976 23.6797 7.80474 23.8047C7.67971 23.9298 7.51014 24 7.33333 24H3.33333C2.4496 23.9989 1.60237 23.6474 0.97748 23.0225C0.352588 22.3976 0.00105857 21.5504 0 20.6667V11.3333C0 9.496 1.49467 8 3.33333 8H28.6667C30.5053 8 32 9.496 32 11.3333V20.6667C32 22.504 30.5053 24 28.6667 24ZM19.3333 28H11.3333C11.1565 28 10.987 27.9298 10.8619 27.8047C10.7369 27.6797 10.6667 27.5101 10.6667 27.3333C10.6667 27.1565 10.7369 26.987 10.8619 26.8619C10.987 26.7369 11.1565 26.6667 11.3333 26.6667H19.3333C19.5101 26.6667 19.6797 26.7369 19.8047 26.8619C19.9298 26.987 20 27.1565 20 27.3333C20 27.5101 19.9298 27.6797 19.8047 27.8047C19.6797 27.9298 19.5101 28 19.3333 28ZM19.3333 25.3333H11.3333C11.1565 25.3333 10.987 25.2631 10.8619 25.1381C10.7369 25.013 10.6667 24.8435 10.6667 24.6667C10.6667 24.4899 10.7369 24.3203 10.8619 24.1953C10.987 24.0702 11.1565 24 11.3333 24H19.3333C19.5101 24 19.6797 24.0702 19.8047 24.1953C19.9298 24.3203 20 24.4899 20 24.6667C20 24.8435 19.9298 25.013 19.8047 25.1381C19.6797 25.2631 19.5101 25.3333 19.3333 25.3333Z" fill="white"/>
<path d="M14.0001 22.6667H11.3334C11.1566 22.6667 10.987 22.5964 10.862 22.4714C10.737 22.3464 10.6667 22.1768 10.6667 22C10.6667 21.8232 10.737 21.6536 10.862 21.5286C10.987 21.4036 11.1566 21.3333 11.3334 21.3333H14.0001C14.1769 21.3333 14.3465 21.4036 14.4715 21.5286C14.5965 21.6536 14.6667 21.8232 14.6667 22C14.6667 22.1768 14.5965 22.3464 14.4715 22.4714C14.3465 22.5964 14.1769 22.6667 14.0001 22.6667ZM24.6667 9.33333C24.4899 9.33333 24.3204 9.2631 24.1953 9.13807C24.0703 9.01305 24.0001 8.84348 24.0001 8.66667V3.33333C24.0001 2.23067 23.1027 1.33333 22.0001 1.33333H10.0001C8.89741 1.33333 8.00008 2.23067 8.00008 3.33333V8.66667C8.00008 8.84348 7.92984 9.01305 7.80482 9.13807C7.67979 9.2631 7.51023 9.33333 7.33341 9.33333C7.1566 9.33333 6.98703 9.2631 6.86201 9.13807C6.73699 9.01305 6.66675 8.84348 6.66675 8.66667V3.33333C6.66675 1.496 8.16141 0 10.0001 0H22.0001C23.8387 0 25.3334 1.496 25.3334 3.33333V8.66667C25.3334 8.84348 25.2632 9.01305 25.1382 9.13807C25.0131 9.2631 24.8436 9.33333 24.6667 9.33333Z" fill="white"/>
<path d="M22.0001 32H10.0001C9.11635 31.999 8.26912 31.6475 7.64423 31.0226C7.01934 30.3977 6.66781 29.5504 6.66675 28.6667V18C6.66675 17.8232 6.73699 17.6537 6.86201 17.5286C6.98703 17.4036 7.1566 17.3334 7.33341 17.3334H24.6667C24.8436 17.3334 25.0131 17.4036 25.1382 17.5286C25.2632 17.6537 25.3334 17.8232 25.3334 18V28.6667C25.3334 30.504 23.8387 32 22.0001 32ZM8.00008 18.6667V28.6667C8.00008 29.7694 8.89741 30.6667 10.0001 30.6667H22.0001C23.1027 30.6667 24.0001 29.7694 24.0001 28.6667V18.6667H8.00008Z" fill="white"/>
</svg>
