<svg width="35" height="30" viewBox="0 0 35 30" fill="none" xmlns="http://www.w3.org/2000/svg">
<path d="M34.0718 15.2673C34.1131 15.166 34.1238 15.0548 34.1025 14.9476C34.0811 14.8403 34.0287 14.7417 33.9516 14.664L32.2912 13.0035C32.1868 12.9027 32.047 12.8469 31.9019 12.8482C31.7567 12.8494 31.6179 12.9076 31.5153 13.0103C31.4127 13.1129 31.3545 13.2517 31.3532 13.3968C31.3519 13.5419 31.4077 13.6818 31.5086 13.7861L32.2248 14.5024H18.0633C17.9165 14.5024 17.7757 14.5607 17.6719 14.6645C17.5681 14.7683 17.5098 14.909 17.5098 15.0558C17.5098 15.2026 17.5681 15.3434 17.6719 15.4472C17.7757 15.551 17.9165 15.6093 18.0633 15.6093H32.2248L31.5091 16.325C31.4562 16.376 31.4141 16.4371 31.3851 16.5046C31.3561 16.5722 31.3408 16.6448 31.3402 16.7183C31.3395 16.7918 31.3535 16.8647 31.3814 16.9327C31.4092 17.0007 31.4503 17.0625 31.5022 17.1145C31.5542 17.1664 31.616 17.2075 31.684 17.2354C31.7521 17.2632 31.8249 17.2772 31.8984 17.2766C31.9719 17.2759 32.0445 17.2607 32.1121 17.2317C32.1796 17.2026 32.2407 17.1605 32.2917 17.1076C32.3471 17.0301 34.1271 15.3326 34.0718 15.2673Z" fill="white" fill-opacity="0.9"/>
<path d="M31.3029 18.7187C31.3644 18.6605 29.5739 16.9508 29.5235 16.8783C29.4191 16.7775 29.2793 16.7217 29.1342 16.723C28.989 16.7242 28.8502 16.7824 28.7476 16.885C28.645 16.9877 28.5868 17.1265 28.5855 17.2716C28.5842 17.4167 28.64 17.5565 28.7409 17.6609L29.456 18.3766H20.831C20.6842 18.3766 20.5434 18.4349 20.4396 18.5387C20.3358 18.6425 20.2775 18.7833 20.2775 18.9301C20.2775 19.0769 20.3358 19.2177 20.4396 19.3215C20.5434 19.4253 20.6842 19.4836 20.831 19.4836H22.4914V25.1789L12.5287 28.6659V1.44488L22.4914 4.93185V10.6278H20.831C20.6842 10.6278 20.5434 10.6861 20.4396 10.7899C20.3358 10.8937 20.2775 11.0345 20.2775 11.1813C20.2775 11.3281 20.3358 11.4688 20.4396 11.5726C20.5434 11.6764 20.6842 11.7348 20.831 11.7348H29.4576L28.742 12.4504C28.6891 12.5015 28.6469 12.5625 28.6179 12.6301C28.5889 12.6976 28.5737 12.7702 28.573 12.8437C28.5724 12.9172 28.5864 12.9901 28.6142 13.0581C28.642 13.1261 28.6831 13.1879 28.7351 13.2399C28.7871 13.2919 28.8489 13.333 28.9169 13.3608C28.9849 13.3886 29.0578 13.4026 29.1313 13.402C29.2048 13.4014 29.2774 13.3861 29.3449 13.3571C29.4125 13.3281 29.4735 13.2859 29.5246 13.233L31.1851 11.5726C31.2878 11.468 31.3454 11.3273 31.3454 11.1807C31.3454 11.0341 31.2878 10.8934 31.1851 10.7888L29.5246 9.12839C29.4202 9.02756 29.2804 8.97178 29.1353 8.97304C28.9902 8.9743 28.8513 9.03251 28.7487 9.13513C28.6461 9.23775 28.5879 9.37657 28.5866 9.52169C28.5854 9.66681 28.6411 9.80663 28.742 9.91102L29.4576 10.6278H23.5984V4.53943C23.5985 4.4247 23.5628 4.3128 23.4965 4.21919C23.4302 4.12559 23.3364 4.05491 23.2281 4.01693L12.1584 0.142528C12.0749 0.113251 11.9857 0.104404 11.8981 0.116726C11.8105 0.129048 11.7271 0.162181 11.655 0.21335C11.5828 0.264518 11.524 0.332231 11.4834 0.410817C11.4428 0.489402 11.4217 0.576571 11.4217 0.665019V15.6319C8.49653 15.3634 8.49874 19.7304 11.4217 19.4609V20.8673C11.2015 20.8673 10.9903 20.9548 10.8346 21.1105C10.6789 21.2662 10.5915 21.4773 10.5915 21.6975C10.5915 21.9177 10.6789 22.1289 10.8346 22.2846C10.9903 22.4403 11.2015 22.5277 11.4217 22.5277V29.4463C11.4227 29.5928 11.4814 29.733 11.5849 29.8366C11.6885 29.9402 11.8287 29.9988 11.9752 29.9998C12.0376 29.9996 12.0995 29.9892 12.1584 29.9688L23.2281 26.0944C23.3364 26.0564 23.4302 25.9858 23.4965 25.8922C23.5628 25.7986 23.5985 25.6867 23.5984 25.5719V19.4836H29.456L28.7409 20.1992C28.64 20.3036 28.5842 20.4434 28.5855 20.5886C28.5868 20.7337 28.645 20.8725 28.7476 20.9751C28.8502 21.0777 28.989 21.1359 29.1342 21.1372C29.2793 21.1385 29.4191 21.0827 29.5235 20.9819L31.184 19.3214C31.2611 19.2439 31.3136 19.1453 31.3348 19.0381C31.3559 18.9308 31.3449 18.8196 31.3029 18.7187ZM11.145 18.3766C11.0235 18.3775 10.9033 18.3518 10.7929 18.3012C10.6824 18.2507 10.5844 18.1765 10.5058 18.0839C10.4271 17.9913 10.3698 17.8826 10.3377 17.7655C10.3057 17.6483 10.2997 17.5255 10.3203 17.4058C10.3409 17.2861 10.3874 17.1723 10.4568 17.0726C10.5261 16.9728 10.6164 16.8895 10.7215 16.8285C10.8265 16.7675 10.9437 16.7303 11.0646 16.7195C11.1856 16.7086 11.3075 16.7245 11.4217 16.7659V18.3268C11.3329 18.3589 11.2394 18.3757 11.145 18.3766ZM4.50312 10.6278C5.0169 10.6278 5.50964 10.4237 5.87293 10.0604C6.23623 9.69709 6.44033 9.20436 6.44033 8.69058C6.44033 8.1768 6.23623 7.68406 5.87293 7.32077C5.50964 6.95747 5.0169 6.75337 4.50312 6.75337C3.98934 6.75337 3.49661 6.95747 3.13331 7.32077C2.77002 7.68406 2.56592 8.1768 2.56592 8.69058C2.56592 9.20436 2.77002 9.69709 3.13331 10.0604C3.49661 10.4237 3.98934 10.6278 4.50312 10.6278ZM4.50312 7.86035C4.72331 7.86035 4.93448 7.94782 5.09018 8.10352C5.24588 8.25921 5.33335 8.47039 5.33335 8.69058C5.33335 8.91077 5.24588 9.12194 5.09018 9.27764C4.93448 9.43334 4.72331 9.52081 4.50312 9.52081C4.28293 9.52081 4.07176 9.43334 3.91606 9.27764C3.76036 9.12194 3.67289 8.91077 3.67289 8.69058C3.67289 8.47039 3.76036 8.25921 3.91606 8.10352C4.07176 7.94782 4.28293 7.86035 4.50312 7.86035ZM7.5473 16.9929C7.5473 16.3323 7.28489 15.6988 6.81779 15.2317C6.3507 14.7646 5.71718 14.5022 5.05661 14.5022C4.39604 14.5022 3.76252 14.7646 3.29542 15.2317C2.82833 15.6988 2.56592 16.3323 2.56592 16.9929C2.56592 17.6535 2.82833 18.287 3.29542 18.7541C3.76252 19.2212 4.39604 19.4836 5.05661 19.4836C5.71718 19.4836 6.3507 19.2212 6.81779 18.7541C7.28489 18.287 7.5473 17.6535 7.5473 16.9929ZM5.05661 18.3766C4.68962 18.3766 4.33767 18.2308 4.07817 17.9713C3.81868 17.7118 3.67289 17.3599 3.67289 16.9929C3.67289 16.6259 3.81868 16.2739 4.07817 16.0144C4.33767 15.7549 4.68962 15.6092 5.05661 15.6092C5.42359 15.6092 5.77555 15.7549 6.03504 16.0144C6.29454 16.2739 6.44033 16.6259 6.44033 16.9929C6.44033 17.3599 6.29454 17.7118 6.03504 17.9713C5.77555 18.2308 5.42359 18.3766 5.05661 18.3766Z" fill="white" fill-opacity="0.9"/>
<path d="M10.3145 12.5655C10.3145 12.1985 10.1688 11.8465 9.90927 11.587C9.64977 11.3275 9.29782 11.1818 8.93083 11.1818C8.56385 11.1818 8.21189 11.3275 7.9524 11.587C7.6929 11.8465 7.54711 12.1985 7.54711 12.5655C7.54711 12.9325 7.6929 13.2844 7.9524 13.5439C8.21189 13.8034 8.56385 13.9492 8.93083 13.9492C9.29782 13.9492 9.64977 13.8034 9.90927 13.5439C10.1688 13.2844 10.3145 12.9325 10.3145 12.5655ZM8.93083 12.8422C8.85743 12.8422 8.78704 12.8131 8.73514 12.7612C8.68324 12.7093 8.65409 12.6389 8.65409 12.5655C8.65409 12.4921 8.68324 12.4217 8.73514 12.3698C8.78704 12.3179 8.85743 12.2887 8.93083 12.2887C9.00423 12.2887 9.07462 12.3179 9.12652 12.3698C9.17842 12.4217 9.20757 12.4921 9.20757 12.5655C9.20757 12.6389 9.17842 12.7093 9.12652 12.7612C9.07462 12.8131 9.00423 12.8422 8.93083 12.8422ZM9.48432 9.5213C9.70451 9.5213 9.91568 9.43383 10.0714 9.27813C10.2271 9.12243 10.3145 8.91126 10.3145 8.69107C10.3145 8.47088 10.2271 8.25971 10.0714 8.10401C9.91568 7.94831 9.70451 7.86084 9.48432 7.86084C9.26413 7.86084 9.05296 7.94831 8.89726 8.10401C8.74156 8.25971 8.65409 8.47088 8.65409 8.69107C8.65409 8.91126 8.74156 9.12243 8.89726 9.27813C9.05296 9.43383 9.26413 9.5213 9.48432 9.5213ZM1.7355 12.2887C1.51531 12.2887 1.30414 12.3762 1.14844 12.5319C0.992744 12.6876 0.905273 12.8988 0.905273 13.119C0.905273 13.3392 0.992744 13.5503 1.14844 13.706C1.30414 13.8617 1.51531 13.9492 1.7355 13.9492C1.95569 13.9492 2.16687 13.8617 2.32257 13.706C2.47826 13.5503 2.56573 13.3392 2.56573 13.119C2.56573 12.8988 2.47826 12.6876 2.32257 12.5319C2.16687 12.3762 1.95569 12.2887 1.7355 12.2887ZM6.99363 20.591C6.55325 20.591 6.1309 20.766 5.8195 21.0774C5.50811 21.3888 5.33317 21.8111 5.33317 22.2515C5.33317 22.6919 5.50811 23.1142 5.8195 23.4256C6.1309 23.737 6.55325 23.912 6.99363 23.912C7.43401 23.912 7.85635 23.737 8.16775 23.4256C8.47915 23.1142 8.65409 22.6919 8.65409 22.2515C8.65409 21.8111 8.47915 21.3888 8.16775 21.0774C7.85635 20.766 7.43401 20.591 6.99363 20.591ZM6.99363 22.805C6.84683 22.805 6.70605 22.7467 6.60225 22.6429C6.49845 22.5391 6.44014 22.3983 6.44014 22.2515C6.44014 22.1047 6.49845 21.9639 6.60225 21.8601C6.70605 21.7563 6.84683 21.698 6.99363 21.698C7.14042 21.698 7.2812 21.7563 7.385 21.8601C7.4888 21.9639 7.54711 22.1047 7.54711 22.2515C7.54711 22.3983 7.4888 22.5391 7.385 22.6429C7.2812 22.7467 7.14042 22.805 6.99363 22.805Z" fill="white" fill-opacity="0.9"/>
</svg>
