<svg width="21" height="21" viewBox="0 0 21 21" fill="none" xmlns="http://www.w3.org/2000/svg">
<path fill-rule="evenodd" clip-rule="evenodd" d="M3.38232 0.966623C2.74158 0.966623 2.12707 1.22116 1.67399 1.67424C1.22091 2.12731 0.966378 2.74182 0.966378 3.38257V16.9119C0.966378 17.5526 1.22091 18.1671 1.67399 18.6202C2.12707 19.0733 2.74158 19.3278 3.38232 19.3278H11.1133V20.2942H3.38232C2.48528 20.2942 1.62497 19.9378 0.99066 19.3035C0.356351 18.6692 0 17.8089 0 16.9119V3.38257C0 2.48552 0.356351 1.62521 0.99066 0.990904C1.62497 0.356596 2.48528 0.000244911 3.38232 0.000244911H10.147C10.2105 0.00013151 10.2734 0.012534 10.3321 0.0367434C10.3908 0.0609528 10.4441 0.0964944 10.4891 0.141336L16.2873 5.9396C16.3322 5.98456 16.3677 6.03791 16.3919 6.09661C16.4161 6.15531 16.4285 6.21821 16.4284 6.2817V8.21446H15.4621V6.48174L9.94693 0.966623H3.38232Z" fill="white"/>
<path fill-rule="evenodd" clip-rule="evenodd" d="M9.96255 0.03692C10.0508 0.000280025 10.148 -0.0093607 10.2417 0.00921693C10.3355 0.0277946 10.4216 0.0737561 10.4892 0.141289L16.2875 5.93956C16.3552 6.00714 16.4014 6.09331 16.4201 6.18715C16.4388 6.281 16.4293 6.37828 16.3926 6.46668C16.356 6.55508 16.2939 6.63061 16.2143 6.68369C16.1347 6.73677 16.0411 6.76502 15.9454 6.76484H13.0463C12.1492 6.76484 11.2889 6.40849 10.6546 5.77418C10.0203 5.13988 9.66394 4.27957 9.66394 3.38252V0.483387C9.66396 0.387773 9.69234 0.294314 9.74549 0.214839C9.79865 0.135363 9.87419 0.0734442 9.96255 0.03692ZM10.6303 1.65077V3.38252C10.6303 4.02327 10.8849 4.63777 11.3379 5.09085C11.791 5.54393 12.4055 5.79847 13.0463 5.79847H14.779L10.6303 1.65077ZM13.5295 10.6304C12.7606 10.6304 12.0231 10.9358 11.4795 11.4795C10.9358 12.0232 10.6303 12.7606 10.6303 13.5295C10.6303 14.2984 10.9358 15.0358 11.4795 15.5795C12.0231 16.1232 12.7606 16.4286 13.5295 16.4286C14.2984 16.4286 15.0358 16.1232 15.5795 15.5795C16.1231 15.0358 16.4286 14.2984 16.4286 13.5295C16.4286 12.7606 16.1231 12.0232 15.5795 11.4795C15.0358 10.9358 14.2984 10.6304 13.5295 10.6304ZM9.66394 13.5295C9.66394 12.5043 10.0712 11.5211 10.7961 10.7962C11.521 10.0712 12.5043 9.66398 13.5295 9.66398C14.5547 9.66398 15.5379 10.0712 16.2628 10.7962C16.9877 11.5211 17.395 12.5043 17.395 13.5295C17.395 14.5547 16.9877 15.5379 16.2628 16.2628C15.5379 16.9877 14.5547 17.395 13.5295 17.395C12.5043 17.395 11.521 16.9877 10.7961 16.2628C10.0712 15.5379 9.66394 14.5547 9.66394 13.5295Z" fill="white"/>
<path fill-rule="evenodd" clip-rule="evenodd" d="M16.2873 15.6033L20.1529 19.4688L19.4696 20.153L15.6041 16.2875L16.2873 15.6033ZM8.21421 5.79841H3.38232V4.83203H8.21421V5.79841ZM8.21421 10.6303H3.38232V9.66392H8.21421V10.6303ZM8.21421 15.4622H3.38232V14.4958H8.21421V15.4622Z" fill="white"/>
</svg>
