<svg width="19" height="19" viewBox="0 0 19 19" fill="none" xmlns="http://www.w3.org/2000/svg">
<path d="M9.94196 13.9183C9.94196 14.094 10.0118 14.2626 10.1361 14.3869C10.2604 14.5112 10.429 14.5811 10.6047 14.5811H13.9187C14.0945 14.5811 14.2631 14.5112 14.3874 14.3869C14.5117 14.2626 14.5815 14.094 14.5815 13.9183V10.6043C14.5815 10.4285 14.5117 10.2599 14.3874 10.1356C14.2631 10.0114 14.0945 9.94152 13.9187 9.94152C13.7429 9.94152 13.5743 10.0114 13.45 10.1356C13.3257 10.2599 13.2559 10.4285 13.2559 10.6043V12.3187L6.68103 5.74385H8.39544C8.57123 5.74385 8.73981 5.67402 8.86411 5.54972C8.98841 5.42542 9.05824 5.25684 9.05824 5.08106C9.05824 4.90527 8.98841 4.73669 8.86411 4.61239C8.73981 4.48809 8.57123 4.41827 8.39544 4.41827H5.08149C4.90571 4.41827 4.73713 4.48809 4.61283 4.61239C4.48853 4.73669 4.4187 4.90527 4.4187 5.08106V8.39501C4.4187 8.57079 4.48853 8.73938 4.61283 8.86367C4.73713 8.98797 4.90571 9.0578 5.08149 9.0578C5.25727 9.0578 5.42586 8.98797 5.55016 8.86367C5.67445 8.73938 5.74428 8.57079 5.74428 8.39501V6.68059L12.3192 13.2555H10.6047C10.5177 13.2555 10.4315 13.2726 10.3511 13.3059C10.2707 13.3392 10.1976 13.3881 10.1361 13.4496C10.0745 13.5111 10.0257 13.5842 9.99241 13.6646C9.9591 13.745 9.94196 13.8312 9.94196 13.9183Z" fill="white" fill-opacity="0.8"/>
<path fill-rule="evenodd" clip-rule="evenodd" d="M9.44963 19C7.40912 19 5.81047 19 4.56265 18.8321C3.28656 18.6607 2.27912 18.3019 1.48819 17.5118C0.697256 16.7218 0.339349 15.7134 0.167907 14.4365C5.26739e-08 13.1895 0 11.5909 0 9.55037V9.44963C0 7.40912 5.26739e-08 5.81046 0.167907 4.56265C0.339349 3.28656 0.69814 2.27912 1.48819 1.48819C2.27823 0.697256 3.28656 0.33935 4.56353 0.167908C5.81047 0 7.40912 0 9.44963 0H9.55037C11.5909 0 13.1895 0 14.4373 0.167908C15.7134 0.33935 16.7209 0.698139 17.5118 1.48819C18.3027 2.27823 18.6607 3.28656 18.8321 4.56353C19 5.81046 19 7.40912 19 9.44963V9.55037C19 11.5909 19 13.1895 18.8321 14.4373C18.6607 15.7134 18.3019 16.7209 17.5118 17.5118C16.7218 18.3027 15.7134 18.6607 14.4365 18.8321C13.1895 19 11.5909 19 9.55037 19H9.44963ZM2.42581 16.5742C2.92953 17.0779 3.61 17.3669 4.74028 17.5189C5.88912 17.6727 7.39851 17.6744 9.5 17.6744C11.6015 17.6744 13.1109 17.6727 14.2597 17.5189C15.39 17.3669 16.0714 17.077 16.5751 16.5742C17.0779 16.0705 17.3669 15.39 17.5189 14.2597C17.6727 13.1109 17.6744 11.6015 17.6744 9.5C17.6744 7.39851 17.6727 5.88912 17.5189 4.74028C17.3669 3.61 17.077 2.92865 16.5742 2.42493C16.0713 1.92121 15.39 1.63312 14.2597 1.48112C13.1109 1.32735 11.6015 1.32558 9.5 1.32558C7.39851 1.32558 5.88912 1.32735 4.74028 1.48112C3.61 1.63312 2.92865 1.92298 2.42493 2.42581C1.92209 2.92953 1.63312 3.61 1.48112 4.74028C1.32735 5.88912 1.32558 7.39851 1.32558 9.5C1.32558 11.6015 1.32735 13.1109 1.48112 14.2597C1.63312 15.39 1.92298 16.0705 2.42581 16.5742Z" fill="white" fill-opacity="0.8"/>
</svg>
