<svg viewBox="0 0 20 23" fill="none">
<path d="M19.5906 16.416L18.2318 14.4613C18.0464 14.1956 17.9466 13.8796 17.9458 13.5555V7.94579C17.9458 5.83843 17.1086 3.81739 15.6185 2.32727C14.1284 0.837143 12.1074 0 10 0C7.89265 0 5.8716 0.837143 4.38148 2.32727C2.89135 3.81739 2.05421 5.83843 2.05421 7.94579V13.5555C2.05344 13.8796 1.95363 14.1956 1.76816 14.4613L0.409434 16.416C0.203701 16.6439 0.0684143 16.9266 0.0199333 17.2298C-0.0285477 17.533 0.0118535 17.8438 0.136251 18.1245C0.260649 18.4053 0.463716 18.644 0.720894 18.8117C0.978073 18.9795 1.27835 19.0692 1.58541 19.0699H6.10656C6.28893 19.968 6.77618 20.7754 7.48575 21.3554C8.19532 21.9354 9.08357 22.2522 10 22.2522C10.9164 22.2522 11.8047 21.9354 12.5143 21.3554C13.2238 20.7754 13.7111 19.968 13.8934 19.0699H18.4146C18.7217 19.0692 19.0219 18.9795 19.2791 18.8117C19.5363 18.644 19.7393 18.4053 19.8637 18.1245C19.9881 17.8438 20.0285 17.533 19.9801 17.2298C19.9316 16.9266 19.7963 16.6439 19.5906 16.416ZM10 20.659C9.5082 20.6577 9.02886 20.5042 8.62771 20.2197C8.22656 19.9352 7.92322 19.5336 7.75929 19.0699H12.2407C12.0768 19.5336 11.7734 19.9352 11.3723 20.2197C10.9711 20.5042 10.4918 20.6577 10 20.659ZM1.58541 17.4807C1.62132 17.4474 1.65331 17.4101 1.68076 17.3695L3.07127 15.3672C3.44222 14.8357 3.64183 14.2036 3.64337 13.5555V7.94579C3.64337 6.2599 4.31308 4.64307 5.50518 3.45097C6.69728 2.25887 8.31412 1.58916 10 1.58916C11.6859 1.58916 13.3027 2.25887 14.4948 3.45097C15.6869 4.64307 16.3566 6.2599 16.3566 7.94579V13.5555C16.3582 14.2036 16.5578 14.8357 16.9287 15.3672L18.3192 17.3695C18.3467 17.4101 18.3787 17.4474 18.4146 17.4807H1.58541Z" fill="currentColor"/>
</svg>
