<svg width="20" height="17" viewBox="0 0 20 17" fill="none" xmlns="http://www.w3.org/2000/svg">
<path fill-rule="evenodd" clip-rule="evenodd" d="M15.3589 1.45728C16.0315 1.45728 16.5768 2.00128 16.5768 2.67183V4.61455C16.5717 4.71305 16.5869 4.81153 16.6213 4.90402C16.6557 4.99651 16.7087 5.08107 16.7771 5.15256C16.8454 5.22405 16.9276 5.28097 17.0188 5.31987C17.1099 5.35877 17.2081 5.37883 17.3073 5.37883C17.4065 5.37883 17.5046 5.35877 17.5958 5.31987C17.6869 5.28097 17.7692 5.22405 17.8375 5.15256C17.9059 5.08107 17.9588 4.99651 17.9933 4.90402C18.0277 4.81153 18.0429 4.71305 18.0378 4.61455V2.67183C18.0388 1.96438 17.7572 1.2855 17.2548 0.784458C16.7525 0.283421 16.0705 0.00125122 15.3589 0H13.4106C13.2162 0 13.0298 0.076767 12.8924 0.213413C12.7549 0.35006 12.6777 0.535391 12.6777 0.72864C12.6777 0.921886 12.7549 1.10722 12.8924 1.24387C13.0298 1.38051 13.2162 1.45728 13.4106 1.45728H15.3589ZM15.3589 15.5427C16.0315 15.5427 16.5768 14.9997 16.5768 14.3282V12.3854C16.5717 12.287 16.5869 12.1885 16.6213 12.096C16.6557 12.0035 16.7087 11.9189 16.7771 11.8474C16.8454 11.776 16.9276 11.719 17.0188 11.6801C17.1099 11.6412 17.2081 11.6212 17.3073 11.6212C17.4065 11.6212 17.5046 11.6412 17.5958 11.6801C17.6869 11.719 17.7692 11.776 17.8375 11.8474C17.9059 11.9189 17.9588 12.0035 17.9933 12.096C18.0277 12.1885 18.0429 12.287 18.0378 12.3854V14.3282C18.0388 15.0356 17.7572 15.7145 17.2548 16.2155C16.7525 16.7166 16.0705 16.9987 15.3589 17H13.4106C13.2162 17 13.0298 16.9232 12.8924 16.7866C12.7549 16.6499 12.6777 16.4646 12.6777 16.2714C12.6777 16.0781 12.7549 15.8928 12.8924 15.7561C13.0298 15.6195 13.2162 15.5427 13.4106 15.5427H15.3589ZM3.66692 1.45728C3.50674 1.45752 3.34818 1.48914 3.20029 1.55031C3.0524 1.61148 2.91808 1.70101 2.80499 1.81379C2.6919 1.92658 2.60227 2.0604 2.5412 2.20762C2.48013 2.35484 2.44883 2.51258 2.44908 2.67183V4.61455C2.45413 4.71305 2.43898 4.81153 2.40455 4.90402C2.37012 4.99651 2.31713 5.08107 2.2488 5.15256C2.18047 5.22405 2.09823 5.28097 2.00707 5.31987C1.91592 5.35877 1.81776 5.37883 1.71857 5.37883C1.61937 5.37883 1.52121 5.35877 1.43006 5.31987C1.33891 5.28097 1.25666 5.22405 1.18833 5.15256C1.12 5.08107 1.06701 4.99651 1.03258 4.90402C0.998147 4.81153 0.982999 4.71305 0.988052 4.61455V2.67183C0.987044 1.96438 1.26868 1.2855 1.77104 0.784458C2.2734 0.283421 2.95534 0.00125122 3.66692 0H5.61527C5.80964 0 5.99606 0.076767 6.1335 0.213413C6.27094 0.35006 6.34816 0.535391 6.34816 0.72864C6.34816 0.921886 6.27094 1.10722 6.1335 1.24387C5.99606 1.38051 5.80964 1.45728 5.61527 1.45728H3.66692ZM3.66692 15.5427C2.99435 15.5427 2.44908 14.9997 2.44908 14.3282V12.3854C2.45413 12.287 2.43898 12.1885 2.40455 12.096C2.37012 12.0035 2.31713 11.9189 2.2488 11.8474C2.18047 11.776 2.09823 11.719 2.00707 11.6801C1.91592 11.6412 1.81776 11.6212 1.71857 11.6212C1.61937 11.6212 1.52121 11.6412 1.43006 11.6801C1.33891 11.719 1.25666 11.776 1.18833 11.8474C1.12 11.9189 1.06701 12.0035 1.03258 12.096C0.998147 12.1885 0.982999 12.287 0.988052 12.3854V14.3282C0.987044 15.0356 1.26868 15.7145 1.77104 16.2155C2.2734 16.7166 2.95534 16.9987 3.66692 17H5.61527C5.80964 17 5.99606 16.9232 6.1335 16.7866C6.27094 16.6499 6.34816 16.4646 6.34816 16.2714C6.34816 16.0781 6.27094 15.8928 6.1335 15.7561C5.99606 15.6195 5.80964 15.5427 5.61527 15.5427H3.66692ZM19.0125 8.5C19.0126 8.40442 18.9937 8.30975 18.957 8.22141C18.9203 8.13307 18.8665 8.0528 18.7985 7.98517C18.7306 7.91754 18.6499 7.86388 18.5611 7.82728C18.4723 7.79067 18.3771 7.77183 18.281 7.77183H0.744865C0.550616 7.77183 0.364324 7.84855 0.22697 7.98511C0.0896159 8.12167 0.0124512 8.30688 0.0124512 8.5C0.0124512 8.69312 0.0896159 8.87833 0.22697 9.01489C0.364324 9.15145 0.550616 9.22817 0.744865 9.22817H9.51293H18.281C18.3771 9.22817 18.4723 9.20933 18.5611 9.17272C18.6499 9.13611 18.7306 9.08246 18.7985 9.01483C18.8665 8.9472 18.9203 8.86693 18.957 8.77859C18.9937 8.69025 19.0126 8.59558 19.0125 8.5Z" fill="white" fill-opacity="0.8"/>
</svg>
