<svg viewBox="0 0 21 20" fill="none">
<path d="M20.2176 18.2881L17.3227 15.4745C18.8921 13.5834 19.6576 11.1771 19.4616 8.75175C19.2655 6.32637 18.1227 4.06684 16.2689 2.43908C14.415 0.811326 11.9915 -0.0605381 9.49801 0.00327078C7.00452 0.0670797 4.63119 1.0617 2.86742 2.78203C1.10364 4.50236 0.0839103 6.81723 0.0184901 9.2493C-0.0469301 11.6814 0.846951 14.0452 2.51581 15.8534C4.18467 17.6616 6.50126 18.7762 8.98789 18.9674C11.4745 19.1587 13.9416 18.412 15.8804 16.8813L18.765 19.7049C18.8601 19.7984 18.9733 19.8726 19.0979 19.9233C19.2226 19.9739 19.3563 20 19.4913 20C19.6264 20 19.7601 19.9739 19.8847 19.9233C20.0094 19.8726 20.1225 19.7984 20.2176 19.7049C20.3135 19.6121 20.3896 19.5018 20.4415 19.3802C20.4935 19.2586 20.5202 19.1282 20.5202 18.9965C20.5202 18.8648 20.4935 18.7344 20.4415 18.6128C20.3896 18.4912 20.3135 18.3808 20.2176 18.2881ZM2.10154 9.51802C2.10154 8.03802 2.5515 6.59126 3.3945 5.36068C4.23751 4.13011 5.43571 3.171 6.83757 2.60463C8.23944 2.03826 9.78202 1.89007 11.2702 2.1788C12.7584 2.46753 14.1255 3.18022 15.1984 4.22674C16.2713 5.27325 17.002 6.6066 17.2981 8.05816C17.5941 9.50972 17.4422 11.0143 16.8615 12.3816C16.2808 13.749 15.2975 14.9177 14.0358 15.7399C12.7742 16.5621 11.2909 17.001 9.77351 17.001C7.73878 17.001 5.78738 16.2126 4.34861 14.8093C2.90984 13.406 2.10154 11.5026 2.10154 9.51802Z" fill="currentColor" />
</svg>
