<svg width="53" height="50" viewBox="0 0 53 50" fill="none" xmlns="http://www.w3.org/2000/svg">
<g filter="url(#filter0_d_1_990)">
<path fill-rule="evenodd" clip-rule="evenodd" d="M4.97351 17.2067L12.2859 3.94358C12.9332 2.75482 13.8878 1.7617 15.0501 1.06799C16.2124 0.374281 17.5396 0.00543816 18.8932 0L33.3191 0C36.0601 0 38.5846 1.50758 39.9286 3.94358L47.2388 17.2067C47.8775 18.369 48.2124 19.6738 48.2124 21C48.2124 22.3262 47.8775 23.631 47.2388 24.7933L39.9263 38.0564C39.2791 39.2452 38.3244 40.2383 37.1622 40.932C35.9999 41.6257 34.6726 41.9946 33.3191 42L18.8932 42C17.5393 41.995 16.2116 41.6263 15.0489 40.9326C13.8862 40.2388 12.9312 39.2455 12.2837 38.0564L4.97351 24.7933C4.33477 23.631 3.99988 22.3262 3.99988 21C3.99988 19.6738 4.33477 18.369 4.97351 17.2067ZM7.8074 18.8315L15.1176 5.56832C15.8847 4.17789 17.3281 3.31579 18.8932 3.31579L33.3191 3.31579C34.8841 3.31579 36.3276 4.17789 37.0947 5.57053L44.4071 18.8337C44.7716 19.4975 44.9627 20.2426 44.9627 21C44.9627 21.7574 44.7716 22.5025 44.4071 23.1663L37.0947 36.4295C36.3276 37.8221 34.8841 38.6842 33.3191 38.6842L18.8932 38.6842C17.3281 38.6842 15.8847 37.8221 15.1176 36.4295L7.8074 23.1663C7.44286 22.5025 7.25174 21.7574 7.25174 21C7.25174 20.2426 7.44286 19.4975 7.8074 18.8337V18.8315Z" fill="white" fill-opacity="0.9"/>
<path fill-rule="evenodd" clip-rule="evenodd" d="M26.1062 16.0263C23.4137 16.0263 21.2319 18.2523 21.2319 21C21.2319 23.7477 23.4137 25.9737 26.1062 25.9737C28.7986 25.9737 30.9804 23.7477 30.9804 21C30.9804 18.2523 28.7986 16.0263 26.1062 16.0263ZM17.9825 21C17.9825 16.422 21.621 12.7105 26.1062 12.7105C30.5913 12.7105 34.2298 16.422 34.2298 21C34.2298 25.578 30.5913 29.2895 26.1062 29.2895C21.621 29.2895 17.9825 25.578 17.9825 21Z" fill="white" fill-opacity="0.9"/>
</g>
<defs>
<filter id="filter0_d_1_990" x="-0.00012207" y="0" width="52.2125" height="50" filterUnits="userSpaceOnUse" color-interpolation-filters="sRGB">
<feFlood flood-opacity="0" result="BackgroundImageFix"/>
<feColorMatrix in="SourceAlpha" type="matrix" values="0 0 0 0 0 0 0 0 0 0 0 0 0 0 0 0 0 0 127 0" result="hardAlpha"/>
<feOffset dy="4"/>
<feGaussianBlur stdDeviation="2"/>
<feComposite in2="hardAlpha" operator="out"/>
<feColorMatrix type="matrix" values="0 0 0 0 0 0 0 0 0 0 0 0 0 0 0 0 0 0 0.25 0"/>
<feBlend mode="normal" in2="BackgroundImageFix" result="effect1_dropShadow_1_990"/>
<feBlend mode="normal" in="SourceGraphic" in2="effect1_dropShadow_1_990" result="shape"/>
</filter>
</defs>
</svg>
