<svg viewBox="0 0 19 16" fill="none">
<path fill-rule="evenodd" clip-rule="evenodd" d="M14.3533 4.82831C14.2094 4.68442 14.0142 4.60359 13.8108 4.60359C13.6073 4.60359 13.4121 4.68442 13.2682 4.82831C13.1243 4.9722 13.0435 5.16736 13.0435 5.37085V12.7258L10.517 10.1993C10.3731 10.0554 10.1779 9.97461 9.9745 9.97461C9.77105 9.97461 9.57592 10.0554 9.43204 10.1993C9.2882 10.3431 9.2074 10.5383 9.2074 10.7417C9.2074 10.9452 9.2882 11.1403 9.43204 11.2842L13.2575 15.1096C13.261 15.1133 13.2646 15.1169 13.2682 15.1206C13.4121 15.2644 13.6073 15.3453 13.8108 15.3453C14.0142 15.3453 14.2094 15.2644 14.3533 15.1206C14.3556 15.1182 14.358 15.1159 14.3603 15.1135L18.1896 11.2842C18.3294 11.1395 18.4067 10.9456 18.4049 10.7445C18.4032 10.5433 18.3225 10.3509 18.1803 10.2086C18.038 10.0663 17.8456 9.98565 17.6444 9.9839C17.4432 9.98215 17.2494 10.0595 17.1047 10.1993L14.578 12.7259V5.37085C14.578 5.16736 14.4972 4.9722 14.3533 4.82831ZM0.224727 6.36284C0.0808367 6.50673 0 6.70189 0 6.90538C0 7.10887 0.0808367 7.30403 0.224727 7.44792C0.368617 7.59181 0.563773 7.67264 0.767264 7.67264H7.67264C7.87613 7.67264 8.07129 7.59181 8.21518 7.44792C8.35907 7.30403 8.43991 7.10887 8.43991 6.90538C8.43991 6.70189 8.35907 6.50673 8.21518 6.36284C8.07129 6.21895 7.87613 6.13811 7.67264 6.13811H0.767264C0.563773 6.13811 0.368617 6.21895 0.224727 6.36284ZM0.224727 0.224727C0.0808367 0.368617 0 0.563773 0 0.767264C0 0.970755 0.0808367 1.16591 0.224727 1.3098C0.368617 1.45369 0.563773 1.53453 0.767264 1.53453H13.8108C14.0142 1.53453 14.2094 1.45369 14.3533 1.3098C14.4972 1.16591 14.578 0.970755 14.578 0.767264C14.578 0.563773 14.4972 0.368617 14.3533 0.224727C14.2094 0.0808367 14.0142 0 13.8108 0H0.767264C0.563773 0 0.368617 0.0808367 0.224727 0.224727ZM0.224727 12.501C0.0808367 12.6448 0 12.84 0 13.0435C0 13.247 0.0808367 13.4421 0.224727 13.586C0.368617 13.7299 0.563773 13.8108 0.767264 13.8108H6.13811C6.34161 13.8108 6.53676 13.7299 6.68065 13.586C6.82454 13.4421 6.90538 13.247 6.90538 13.0435C6.90538 12.84 6.82454 12.6448 6.68065 12.501C6.53676 12.3571 6.34161 12.2762 6.13811 12.2762H0.767264C0.563773 12.2762 0.368617 12.3571 0.224727 12.501Z" fill="currentColor" />
</svg>
