<svg width="18" height="23" viewBox="0 0 18 23" fill="none" xmlns="http://www.w3.org/2000/svg">
<mask id="path-1-inside-1_163_5782" fill="white">
<path fill-rule="evenodd" clip-rule="evenodd" d="M2.09925 7.1732C2.58075 7.18445 2.961 7.58157 2.94863 8.0597L2.07788 8.03832L1.20713 8.01695C1.2136 7.78678 1.31121 7.5686 1.47851 7.41038C1.6458 7.25216 1.86908 7.16685 2.09925 7.1732ZM2.07788 8.03832L1.20713 8.01695V8.06645L1.20375 8.20595C1.18679 8.96336 1.17517 9.72088 1.16888 10.4784C1.14913 11.9838 1.16226 13.4894 1.20825 14.9942C1.2645 16.495 1.41975 18.4367 1.548 19.8846C1.692 21.5181 3.0735 22.75 4.71038 22.75H13.2896C14.9265 22.75 16.308 21.5181 16.452 19.8846C16.5803 18.4378 16.7344 16.495 16.7918 14.9942C16.8377 13.4898 16.8508 11.9846 16.8311 10.4796C16.8243 9.72202 16.813 8.9645 16.7974 8.20707L16.794 8.06645L16.7929 8.01807C16.7861 7.788 16.6884 7.57 16.5212 7.41184C16.354 7.25368 16.1308 7.16827 15.9008 7.17432C15.7868 7.17666 15.6745 7.20142 15.5702 7.24719C15.4658 7.29295 15.3715 7.35883 15.2926 7.44105C15.2138 7.52327 15.1519 7.62022 15.1105 7.72637C15.0691 7.83252 15.049 7.94579 15.0514 8.0597V8.10695L15.0548 8.2442L15.066 8.75607C15.0739 9.19257 15.0829 9.80233 15.0896 10.4953C15.102 11.8858 15.102 13.6003 15.0514 14.9278C14.9951 16.3836 14.8444 18.2905 14.7173 19.7327C14.6835 20.0868 14.5181 20.4154 14.2537 20.6535C13.9894 20.8916 13.6454 21.0219 13.2896 21.0186H4.71038C4.35464 21.0219 4.01061 20.8916 3.74627 20.6535C3.48194 20.4154 3.31654 20.0868 3.28275 19.7327C3.15563 18.2905 3.00488 16.3836 2.94863 14.929C2.90368 13.4515 2.89093 11.9733 2.91038 10.4953C2.91724 9.74489 2.92849 8.9945 2.94413 8.2442L2.9475 8.10695L2.94863 8.0597L2.07788 8.03832ZM0 4.5767C0 4.09857 0.390375 3.71045 0.87075 3.71045H17.1293C17.6096 3.71045 18 4.09857 18 4.5767C18 5.05482 17.6096 5.44295 17.1293 5.44295H0.87075C0.756603 5.44325 0.643516 5.42104 0.537958 5.37759C0.432401 5.33415 0.336442 5.27032 0.255571 5.18977C0.174699 5.10921 0.110501 5.0135 0.0666481 4.90811C0.0227951 4.80272 0.000147477 4.68972 0 4.57557V4.5767Z"/>
</mask>
<path fill-rule="evenodd" clip-rule="evenodd" d="M2.09925 7.1732C2.58075 7.18445 2.961 7.58157 2.94863 8.0597L2.07788 8.03832L1.20713 8.01695C1.2136 7.78678 1.31121 7.5686 1.47851 7.41038C1.6458 7.25216 1.86908 7.16685 2.09925 7.1732ZM2.07788 8.03832L1.20713 8.01695V8.06645L1.20375 8.20595C1.18679 8.96336 1.17517 9.72088 1.16888 10.4784C1.14913 11.9838 1.16226 13.4894 1.20825 14.9942C1.2645 16.495 1.41975 18.4367 1.548 19.8846C1.692 21.5181 3.0735 22.75 4.71038 22.75H13.2896C14.9265 22.75 16.308 21.5181 16.452 19.8846C16.5803 18.4378 16.7344 16.495 16.7918 14.9942C16.8377 13.4898 16.8508 11.9846 16.8311 10.4796C16.8243 9.72202 16.813 8.9645 16.7974 8.20707L16.794 8.06645L16.7929 8.01807C16.7861 7.788 16.6884 7.57 16.5212 7.41184C16.354 7.25368 16.1308 7.16827 15.9008 7.17432C15.7868 7.17666 15.6745 7.20142 15.5702 7.24719C15.4658 7.29295 15.3715 7.35883 15.2926 7.44105C15.2138 7.52327 15.1519 7.62022 15.1105 7.72637C15.0691 7.83252 15.049 7.94579 15.0514 8.0597V8.10695L15.0548 8.2442L15.066 8.75607C15.0739 9.19257 15.0829 9.80233 15.0896 10.4953C15.102 11.8858 15.102 13.6003 15.0514 14.9278C14.9951 16.3836 14.8444 18.2905 14.7173 19.7327C14.6835 20.0868 14.5181 20.4154 14.2537 20.6535C13.9894 20.8916 13.6454 21.0219 13.2896 21.0186H4.71038C4.35464 21.0219 4.01061 20.8916 3.74627 20.6535C3.48194 20.4154 3.31654 20.0868 3.28275 19.7327C3.15563 18.2905 3.00488 16.3836 2.94863 14.929C2.90368 13.4515 2.89093 11.9733 2.91038 10.4953C2.91724 9.74489 2.92849 8.9945 2.94413 8.2442L2.9475 8.10695L2.94863 8.0597L2.07788 8.03832ZM0 4.5767C0 4.09857 0.390375 3.71045 0.87075 3.71045H17.1293C17.6096 3.71045 18 4.09857 18 4.5767C18 5.05482 17.6096 5.44295 17.1293 5.44295H0.87075C0.756603 5.44325 0.643516 5.42104 0.537958 5.37759C0.432401 5.33415 0.336442 5.27032 0.255571 5.18977C0.174699 5.10921 0.110501 5.0135 0.0666481 4.90811C0.0227951 4.80272 0.000147477 4.68972 0 4.57557V4.5767Z" fill="#E14B4B"/>
<path d="M2.07788 8.03832L2.33964 -2.62513L2.07788 8.03832ZM3.21039 -2.60375L2.33964 -2.62513L1.81611 18.7018L2.68686 18.7232L3.21039 -2.60375ZM2.33964 -2.62513L1.46889 -2.6465L0.94536 18.6804L1.81611 18.7018L2.33964 -2.62513ZM15.3109 18.7232L15.8656 18.7097L15.3464 -2.61731L14.7918 -2.60381L15.3109 18.7232ZM2.09925 7.1732L1.51051 28.4984L1.55572 28.4997L1.60094 28.5007L2.09925 7.1732ZM2.94863 8.0597L-18.3776 7.50773L-18.3781 7.52983L-18.3787 7.55194L2.94863 8.0597ZM1.20713 8.01695L-20.1178 7.41713L-20.1262 7.71698V8.01695H1.20713ZM1.20713 8.06645L22.5342 8.58239L22.5405 8.32446V8.06645H1.20713ZM1.20375 8.20595L-20.1233 7.69001L-20.1238 7.70925L-20.1242 7.72849L1.20375 8.20595ZM1.16888 10.4784L22.5004 10.7583L22.501 10.707L22.5015 10.6557L1.16888 10.4784ZM1.20825 14.9942L-20.1151 15.646L-20.1129 15.7196L-20.1101 15.7932L1.20825 14.9942ZM1.548 19.8846L22.7989 18.0112L22.7981 18.0023L1.548 19.8846ZM16.452 19.8846L-4.798 18.0008L-4.79892 18.0112L16.452 19.8846ZM16.7918 14.9942L38.1095 15.8092L38.1126 15.7274L38.1151 15.6455L16.7918 14.9942ZM16.8311 10.4796L-4.50133 10.6727L-4.50094 10.7158L-4.50038 10.7588L16.8311 10.4796ZM16.7974 8.20707L38.1262 7.76662L38.1254 7.7309L38.1246 7.69518L16.7974 8.20707ZM16.794 8.06645L-4.53357 8.56216L-4.53338 8.57026L-4.53319 8.57835L16.794 8.06645ZM16.7929 8.01807L38.1204 7.52236L38.1189 7.45652L38.117 7.3907L16.7929 8.01807ZM15.9008 7.17432L16.3388 28.5032L16.4004 28.5019L16.4619 28.5003L15.9008 7.17432ZM15.0514 8.0597H36.3847V7.83607L36.38 7.61249L15.0514 8.0597ZM15.0514 8.10695H-6.28196V8.36923L-6.27551 8.63143L15.0514 8.10695ZM15.0548 8.2442L36.3829 7.77544L36.3823 7.74758L36.3816 7.71972L15.0548 8.2442ZM15.066 8.75607L36.3959 8.37126L36.3951 8.32928L36.3942 8.28731L15.066 8.75607ZM15.0896 10.4953L36.4221 10.3055L36.422 10.2965L36.4219 10.2875L15.0896 10.4953ZM15.0514 14.9278L36.3688 15.7515L36.3692 15.7408L15.0514 14.9278ZM14.7173 19.7327L35.9542 21.7587L35.9615 21.6823L35.9682 21.6058L14.7173 19.7327ZM13.2896 21.0186L13.4874 -0.313841L13.3885 -0.314758H13.2896V21.0186ZM4.71038 21.0186V-0.314758H4.61149L4.51261 -0.313841L4.71038 21.0186ZM3.28275 19.7327L-17.9682 21.6058L-17.9615 21.6823L-17.9542 21.7587L3.28275 19.7327ZM2.94863 14.929L-18.3748 15.5776L-18.3722 15.6654L-18.3688 15.7533L2.94863 14.929ZM2.91038 10.4953L24.2419 10.776L24.2424 10.7332L24.2428 10.6904L2.91038 10.4953ZM2.94413 8.2442L-18.3828 7.7198L-18.3837 7.75972L-18.3846 7.79964L2.94413 8.2442ZM2.9475 8.10695L24.2744 8.63134L24.2746 8.62303L24.2748 8.61471L2.9475 8.10695ZM0.87075 5.44295V-15.8904H0.843107L0.815465 -15.8903L0.87075 5.44295ZM0 4.57557L21.3333 4.54801L-21.3333 4.57557H0ZM1.60094 28.5007C-9.59094 28.2392 -18.6738 18.9547 -18.3776 7.50773L24.2748 8.61167C24.5958 -3.79158 14.7524 -13.8703 2.59756 -14.1543L1.60094 28.5007ZM22.532 8.61677C22.3795 14.0404 20.0794 19.1815 16.1374 22.9097L-13.1804 -8.08893C-17.4569 -4.04426 -19.9523 1.53317 -20.1178 7.41713L22.532 8.61677ZM16.1374 22.9097C12.1954 26.638 6.93416 28.6481 1.51051 28.4984L2.688 -14.152C-3.19601 -14.3145 -8.90376 -12.1336 -13.1804 -8.08893L16.1374 22.9097ZM-20.1262 8.01695V8.06645H22.5405V8.01695H-20.1262ZM-20.12 7.55051L-20.1233 7.69001L22.5308 8.72189L22.5342 8.58239L-20.12 7.55051ZM-20.1242 7.72849C-20.1434 8.58596 -20.1566 9.44356 -20.1637 10.3012L22.5015 10.6557C22.5069 9.9982 22.517 9.34075 22.5317 8.6834L-20.1242 7.72849ZM-20.1626 10.1986C-20.1864 12.0145 -20.1706 13.8307 -20.1151 15.646L22.5316 14.3424C22.4951 13.1481 22.4847 11.9531 22.5004 10.7583L-20.1626 10.1986ZM-20.1101 15.7932C-20.0321 17.8739 -19.8343 20.2749 -19.7021 21.7669L22.7981 18.0023C22.6738 16.5985 22.5611 15.116 22.5266 14.1952L-20.1101 15.7932ZM-19.7029 21.7579C-18.5622 34.6984 -7.68523 44.0833 4.71038 44.0833V1.41662C13.8322 1.41662 21.9462 8.33771 22.7989 18.0112L-19.7029 21.7579ZM4.71038 44.0833H13.2896V1.41662H4.71038V44.0833ZM13.2896 44.0833C25.6852 44.0833 36.5622 34.6984 37.7029 21.7579L-4.79892 18.0112C-3.94616 8.3377 4.16778 1.41662 13.2896 1.41662V44.0833ZM37.702 21.7683C37.8357 20.2604 38.0306 17.8737 38.1095 15.8092L-4.52601 14.1792C-4.56183 15.1162 -4.67517 16.6152 -4.798 18.0008L37.702 21.7683ZM38.1151 15.6455C38.1706 13.831 38.1864 12.0155 38.1626 10.2003L-4.50038 10.7588C-4.48474 11.9536 -4.49516 13.1486 -4.53164 14.3429L38.1151 15.6455ZM38.1636 10.2864C38.156 9.44642 38.1435 8.60647 38.1262 7.76662L-4.53141 8.64753C-4.51747 9.32254 -4.50744 9.99761 -4.50133 10.6727L38.1636 10.2864ZM38.1246 7.69518L38.1212 7.55455L-4.53319 8.57835L-4.52982 8.71897L38.1246 7.69518ZM38.1216 7.57073L38.1204 7.52236L-4.5347 8.51379L-4.53357 8.56216L38.1216 7.57073ZM38.117 7.3907C37.9442 1.51659 35.4496 -4.04942 31.18 -8.08747L1.86231 22.9112C-2.0728 19.1894 -4.37195 14.0594 -4.53123 8.64545L38.117 7.3907ZM31.18 -8.08747C26.9105 -12.1255 21.2142 -14.3062 15.3396 -14.1516L16.4619 28.5003C11.0474 28.6428 5.79737 26.6328 1.86231 22.9112L31.18 -8.08747ZM15.4627 -14.1545C12.5471 -14.0946 9.67184 -13.4609 7.00118 -12.2895L24.1391 26.7839C21.6772 27.8638 19.0266 28.448 16.3388 28.5032L15.4627 -14.1545ZM7.00118 -12.2895C4.33047 -11.1181 1.91679 -9.43206 -0.102036 -7.32767L30.6873 22.2098C28.8263 24.1497 26.6012 25.7041 24.1391 26.7839L7.00118 -12.2895ZM-0.102036 -7.32767C-2.12076 -5.22338 -3.70531 -2.74185 -4.76494 -0.024718L34.9859 15.4775C34.009 17.9823 32.5483 20.2699 30.6873 22.2098L-0.102036 -7.32767ZM-4.76494 -0.024718C-5.82453 2.69227 -6.3384 5.59136 -6.27727 8.50691L36.38 7.61249C36.4364 10.3002 35.9627 12.9728 34.9859 15.4775L-4.76494 -0.024718ZM-6.28196 8.0597V8.10695H36.3847V8.0597H-6.28196ZM-6.27551 8.63143L-6.27213 8.76868L36.3816 7.71972L36.3783 7.58247L-6.27551 8.63143ZM-6.27343 8.71296L-6.26218 9.22484L36.3942 8.28731L36.3829 7.77544L-6.27343 8.71296ZM-6.26386 9.14089C-6.25705 9.51833 -6.24887 10.0691 -6.2427 10.7031L36.4219 10.2875C36.4146 9.53558 36.4048 8.86681 36.3959 8.37126L-6.26386 9.14089ZM-6.24286 10.6852C-6.23096 12.0225 -6.23605 13.3174 -6.26646 14.1149L36.3692 15.7408C36.4401 13.8833 36.435 11.7492 36.4221 10.3055L-6.24286 10.6852ZM-6.26605 14.1041C-6.30079 15.0031 -6.41127 16.4707 -6.53369 17.8596L35.9682 21.6058C36.1 20.1102 36.291 17.764 36.3688 15.7515L-6.26605 14.1041ZM-6.51966 17.7067C-6.04618 12.7436 -3.72814 8.13876 -0.0237305 4.80217L28.5312 36.5049C32.7643 32.6921 35.4131 27.4301 35.9542 21.7587L-6.51966 17.7067ZM-0.0237305 4.80217C3.68069 1.46556 8.502 -0.360059 13.4874 -0.313841L13.0919 42.351C18.7887 42.4038 24.2981 40.3176 28.5312 36.5049L-0.0237305 4.80217ZM13.2896 -0.314758H4.71038V42.3519H13.2896V-0.314758ZM4.51261 -0.313841C9.49801 -0.360059 14.3193 1.46557 18.0237 4.80217L-10.5312 36.5049C-6.2981 40.3176 -0.788726 42.4038 4.90814 42.351L4.51261 -0.313841ZM18.0237 4.80217C21.7282 8.13878 24.0462 12.7436 24.5197 17.7067L-17.9542 21.7587C-17.4131 27.43 -14.7643 32.6921 -10.5312 36.5049L18.0237 4.80217ZM24.5337 17.8596C24.4113 16.4706 24.3008 15.0028 24.266 14.1046L-18.3688 15.7533C-18.291 17.7644 -18.1 20.1103 -17.9682 21.6058L24.5337 17.8596ZM24.2721 14.2803C24.2366 13.1126 24.2265 11.9442 24.2419 10.776L-18.4211 10.2147C-18.4446 12.0024 -18.4292 13.7905 -18.3748 15.5776L24.2721 14.2803ZM24.2428 10.6904C24.2489 10.0231 24.2589 9.3559 24.2728 8.68876L-18.3846 7.79964C-18.4019 8.6331 -18.4144 9.46667 -18.4221 10.3003L24.2428 10.6904ZM24.271 8.76859L24.2744 8.63134L-18.3794 7.58255L-18.3828 7.7198L24.271 8.76859ZM24.2748 8.61471L24.2759 8.56746L-18.3787 7.55194L-18.3798 7.59919L24.2748 8.61471ZM21.3333 4.5767C21.3333 15.9885 12.0644 25.0438 0.87075 25.0438V-17.6229C-11.2836 -17.6229 -21.3333 -7.79131 -21.3333 4.5767H21.3333ZM0.87075 25.0438H17.1293V-17.6229H0.87075V25.0438ZM17.1293 25.0438C5.93565 25.0438 -3.33333 15.9885 -3.33333 4.5767H39.3333C39.3333 -7.79131 29.2836 -17.6229 17.1293 -17.6229V25.0438ZM-3.33333 4.5767C-3.33333 -6.83506 5.93565 -15.8904 17.1293 -15.8904V26.7763C29.2836 26.7763 39.3333 16.9447 39.3333 4.5767H-3.33333ZM17.1293 -15.8904H0.87075V26.7763H17.1293V-15.8904ZM0.815465 -15.8903C3.50522 -15.8973 6.16992 -15.3739 8.65718 -14.3503L-7.58126 25.1055C-4.88289 26.216 -1.99202 26.7838 0.926036 26.7762L0.815465 -15.8903ZM8.65718 -14.3503C11.1445 -13.3266 13.4056 -11.8227 15.3112 -9.92444L-14.8001 20.304C-12.7327 22.3633 -10.2797 23.9949 -7.58126 25.1055L8.65718 -14.3503ZM15.3112 -9.92444C17.2168 -8.02623 18.7295 -5.77098 19.7629 -3.28766L-19.6296 13.1039C-18.5085 15.798 -16.8674 18.2446 -14.8001 20.304L15.3112 -9.92444ZM19.7629 -3.28766C20.7962 -0.804321 21.3298 1.85833 21.3333 4.54801L-21.3333 4.60314C-21.3295 7.52111 -20.7506 10.4098 -19.6296 13.1039L19.7629 -3.28766ZM-21.3333 4.57557V4.5767H21.3333V4.57557H-21.3333Z" fill="#E14B4B" mask="url(#path-1-inside-1_163_5782)"/>
<mask id="path-3-inside-2_163_5782" fill="white">
<path fill-rule="evenodd" clip-rule="evenodd" d="M4.78921 1.92963C5.06313 1.42145 5.46956 0.996955 5.96536 0.701222C6.46115 0.405488 7.02779 0.249561 7.60509 0.250001H10.3928C11.5718 0.250001 12.6552 0.895751 13.2098 1.92963L14.4136 4.1695C14.4671 4.26988 14.5003 4.37986 14.5112 4.49312C14.5221 4.60637 14.5104 4.72065 14.477 4.82939C14.4435 4.93813 14.3889 5.03918 14.3162 5.12673C14.2436 5.21427 14.1543 5.28659 14.0536 5.3395C13.85 5.44744 13.6121 5.47064 13.3915 5.40407C13.1709 5.3375 12.9856 5.18653 12.8757 4.984L11.6731 2.74525C11.5488 2.5139 11.3641 2.32058 11.1387 2.18587C10.9132 2.05116 10.6555 1.9801 10.3928 1.98025H7.60509C7.06959 1.98025 6.57683 2.27388 6.32483 2.74525L5.12221 4.984C4.89609 5.40588 4.36846 5.56563 3.94433 5.34063C3.52021 5.11563 3.35933 4.59138 3.58433 4.17063L4.78921 1.92963Z"/>
</mask>
<path fill-rule="evenodd" clip-rule="evenodd" d="M4.78921 1.92963C5.06313 1.42145 5.46956 0.996955 5.96536 0.701222C6.46115 0.405488 7.02779 0.249561 7.60509 0.250001H10.3928C11.5718 0.250001 12.6552 0.895751 13.2098 1.92963L14.4136 4.1695C14.4671 4.26988 14.5003 4.37986 14.5112 4.49312C14.5221 4.60637 14.5104 4.72065 14.477 4.82939C14.4435 4.93813 14.3889 5.03918 14.3162 5.12673C14.2436 5.21427 14.1543 5.28659 14.0536 5.3395C13.85 5.44744 13.6121 5.47064 13.3915 5.40407C13.1709 5.3375 12.9856 5.18653 12.8757 4.984L11.6731 2.74525C11.5488 2.5139 11.3641 2.32058 11.1387 2.18587C10.9132 2.05116 10.6555 1.9801 10.3928 1.98025H7.60509C7.06959 1.98025 6.57683 2.27388 6.32483 2.74525L5.12221 4.984C4.89609 5.40588 4.36846 5.56563 3.94433 5.34063C3.52021 5.11563 3.35933 4.59138 3.58433 4.17063L4.78921 1.92963Z" fill="#E14B4B"/>
<path d="M4.78921 1.92963L-13.9898 -8.19263L-13.9952 -8.18266L-14.0005 -8.17269L4.78921 1.92963ZM7.60509 0.250001L7.58883 21.5833L7.59696 21.5833H7.60509V0.250001ZM13.2098 1.92963L-5.58929 12.0145L-5.58551 12.0215L-5.58172 12.0286L13.2098 1.92963ZM14.4136 4.1695L33.2362 -5.87152L33.2207 -5.9005L33.2051 -5.92943L14.4136 4.1695ZM14.0536 5.3395L4.1315 -13.546L4.09548 -13.5271L4.05954 -13.508L14.0536 5.3395ZM12.8757 4.984L-5.91768 15.0795L-5.89726 15.1175L-5.8767 15.1554L12.8757 4.984ZM11.6731 2.74525L30.4665 -7.35028L30.4659 -7.35131L11.6731 2.74525ZM10.3928 1.98025V23.3136L10.4051 23.3136L10.3928 1.98025ZM6.32483 2.74525L25.1182 12.8408L25.1283 12.822L25.1384 12.8031L6.32483 2.74525ZM5.12221 4.984L-13.6712 -5.11153L-13.6758 -5.10288L-13.6805 -5.09423L5.12221 4.984ZM3.58433 4.17063L-15.2054 -5.93169L-15.2167 -5.91059L-15.228 -5.88947L3.58433 4.17063ZM23.5682 12.0519C22.0138 14.9356 19.7074 17.3445 16.8939 19.0228L-4.96315 -17.6203C-8.76825 -15.3506 -11.8876 -12.0927 -13.9898 -8.19263L23.5682 12.0519ZM16.8939 19.0228C14.0804 20.701 10.8648 21.5858 7.58883 21.5833L7.62134 -21.0833C3.19074 -21.0867 -1.15805 -19.89 -4.96315 -17.6203L16.8939 19.0228ZM7.60509 21.5833H10.3928V-21.0833H7.60509V21.5833ZM10.3928 21.5833C3.76457 21.5833 -2.40334 17.9534 -5.58929 12.0145L32.009 -8.15522C27.7138 -16.1619 19.3791 -21.0833 10.3928 -21.0833V21.5833ZM-5.58172 12.0286L-4.37797 14.2684L33.2051 -5.92943L32.0014 -8.16931L-5.58172 12.0286ZM-4.40898 14.2105C-5.67942 11.829 -6.46627 9.21984 -6.72438 6.53324L35.7467 2.45299C35.4669 -0.460112 34.6137 -3.28923 33.2362 -5.87152L-4.40898 14.2105ZM-6.72438 6.53324C-6.98248 3.84667 -6.70678 1.13543 -5.91297 -1.44444L34.8669 11.1032C35.7277 8.30587 36.0266 5.36606 35.7467 2.45299L-6.72438 6.53324ZM-5.91297 -1.44444C-5.11918 -4.02427 -3.82305 -6.42153 -2.09928 -8.49834L30.7317 18.7518C32.6008 16.4999 34.0062 13.9005 34.8669 11.1032L-5.91297 -1.44444ZM-2.09928 -8.49834C-0.375502 -10.5751 1.74202 -12.2906 4.1315 -13.546L23.9757 24.225C26.5666 22.8638 28.8626 21.0037 30.7317 18.7518L-2.09928 -8.49834ZM4.05954 -13.508C8.82386 -16.0344 14.3929 -16.5775 19.5556 -15.0193L7.22743 25.8275C12.8312 27.5188 18.8762 26.9292 24.0476 24.187L4.05954 -13.508ZM19.5556 -15.0193C24.7183 -13.4612 29.057 -9.92771 31.6281 -5.18744L-5.8767 15.1554C-3.08584 20.3008 1.62361 24.1362 7.22743 25.8275L19.5556 -15.0193ZM31.6691 -5.11153L30.4665 -7.35028L-7.1203 12.8408L-5.91768 15.0795L31.6691 -5.11153ZM30.4659 -7.35131C28.5159 -10.9809 25.6182 -14.0138 22.0814 -16.1272L0.195892 20.4989C-2.89005 18.6549 -5.41832 16.0087 -7.11975 12.8418L30.4659 -7.35131ZM22.0814 -16.1272C18.5445 -18.2406 14.5008 -19.3554 10.3806 -19.3531L10.4051 23.3136C6.81011 23.3156 3.28187 22.3429 0.195892 20.4989L22.0814 -16.1272ZM10.3928 -19.3531H7.60509V23.3136H10.3928V-19.3531ZM7.60509 -19.3531C-0.746553 -19.3531 -8.5 -14.7737 -12.4887 -7.31261L25.1384 12.8031C21.6537 19.3214 14.8857 23.3136 7.60509 23.3136V-19.3531ZM-12.4686 -7.35028L-13.6712 -5.11153L23.9156 15.0795L25.1182 12.8408L-12.4686 -7.35028ZM-13.6805 -5.09423C-8.32875 -15.0788 4.04306 -18.7564 13.942 -13.505L-6.05334 24.1863C4.69386 29.8877 18.1209 25.8905 23.9249 15.0622L-13.6805 -5.09423ZM13.942 -13.505C23.8693 -8.23853 27.784 4.1565 22.3967 14.2307L-15.228 -5.88947C-21.0653 5.02625 -16.8289 18.4698 -6.05334 24.1863L13.942 -13.505ZM22.3741 14.2729L23.5789 12.0319L-14.0005 -8.17269L-15.2054 -5.93169L22.3741 14.2729Z" fill="#E14B4B" mask="url(#path-3-inside-2_163_5782)"/>
</svg>
