<svg width="33" height="44" viewBox="0 0 33 44" fill="none" xmlns="http://www.w3.org/2000/svg">
<path d="M30.0365 9.05826C30.0128 8.94484 29.9515 8.84273 29.8625 8.76847L20.4117 0.879329C20.3231 0.805328 20.2121 0.763291 20.0967 0.759978C19.9813 0.756664 19.8681 0.792268 19.7753 0.861062L11.8146 6.76673L3.98668 10.087C3.90592 10.1212 3.83526 10.1755 3.7814 10.2448C3.72755 10.314 3.69229 10.3959 3.67897 10.4826L0.838485 28.9697C0.827441 29.0416 0.831766 29.115 0.851177 29.1851L3.66559 39.3526C3.68478 39.422 3.71832 39.4866 3.76404 39.5422C3.80977 39.5978 3.86665 39.6432 3.93102 39.6755L12.0825 43.7577C12.171 43.8021 12.2704 43.82 12.3689 43.8092L26.4217 42.2727C26.5001 42.2641 26.5754 42.2377 26.6419 42.1954C26.7084 42.1531 26.7643 42.0961 26.8053 42.0288L31.2895 34.663C31.3277 34.6003 31.352 34.5301 31.3608 34.4572L32.8139 22.4779C32.8206 22.4221 32.8182 22.3656 32.8068 22.3106L30.0365 9.05826ZM31.5711 21.4292L25.6846 18.2089L29.3361 10.7376L31.5711 21.4292ZM20.5942 2.37208L28.8927 9.29959L24.97 17.2832L20.5784 9.0044L20.5942 2.37208ZM30.0323 33.6593L14.7341 29.8143L10.9566 25.0031L24.6916 19.1016L30.0323 33.6593ZM19.9074 9.95995L24.2507 18.1707L10.6932 23.9958L11.0198 17.4235L19.9074 9.95995ZM19.5652 2.29859L19.5506 8.47963L13.2643 6.97307L19.5652 2.29859ZM12.1168 7.75649L18.952 9.39453L10.556 16.4573L5.07584 10.743L12.1168 7.75649ZM4.53727 11.6722L9.99277 17.3631L9.63987 24.4641L2.0044 28.1582L4.53727 11.6722ZM1.95749 29.3242L9.98994 25.4379L13.9167 30.4393L13.6344 37.6036L4.53992 38.6537L1.95749 29.3242ZM12.4077 42.7691L5.93594 39.5285L14.0843 38.5876L23.8014 41.5238L12.4077 42.7691ZM26.1334 41.1532L14.6609 37.6868L14.9273 30.9239L30.0474 34.7243L26.1334 41.1532ZM30.5966 32.2105L25.9424 19.5228L31.7503 22.7L30.5966 32.2105Z" fill="white" fill-opacity="0.9"/>
</svg>
