<svg width="29" height="32" viewBox="0 0 29 32" fill="none" xmlns="http://www.w3.org/2000/svg">
<path d="M9.88649 24.5085C12.8679 23.8257 16.0905 23.8005 19.5544 24.4329L20.9842 31.9542H7.91814L9.88649 24.5085Z" fill="#211A30"/>
<path d="M19.1538 30.4274H10.2934L10.9227 24.9488L11.5538 19.4487H18.7633L18.8823 22.7996L19.1538 30.4274Z" fill="#FEB4A9"/>
<path d="M18.8823 22.7995C17.2138 24.3245 15.0785 25.263 12.8626 25.263C12.203 25.2665 11.5473 25.1601 10.9226 24.948L11.5525 19.448H18.7633L18.8823 22.7995Z" fill="#F47D71"/>
<path d="M22.2118 13.0405C22.2118 18.3547 17.7346 22.8923 12.8626 22.8923C8.36908 22.8923 5.93966 18.3572 5.93966 13.0405C5.93966 7.72371 9.58221 3.88086 14.0757 3.88086C18.5692 3.88086 22.2118 7.72623 22.2118 13.0405Z" fill="#FEB4A9"/>
<path d="M4.1629 10.9247C4.1629 10.9247 7.6738 10.8258 8.43784 9.03508C9.20187 7.24436 8.56381 4.2531 12.6076 4.91446C12.6076 4.91446 19.7434 3.22829 19.2376 2.33954C16.8989 -1.76785 7.5768 0.621254 6.20242 1.99374C2.49625 5.68857 4.1629 10.9247 4.1629 10.9247Z" fill="#352120"/>
<path d="M12.7638 4.42506C12.7638 4.42506 15.7349 3.8229 16.138 5.03793C16.8938 7.31302 16.7338 12.3262 21.0308 12.1259C22.38 12.0629 23.4287 11.9816 23.4287 11.9816C23.4287 11.9816 25.6427 7.79866 23.4287 3.593C21.4925 -0.0848206 16.5411 0.380655 13.216 1.76952C9.24655 3.42546 12.7638 4.42506 12.7638 4.42506Z" fill="#352120"/>
<path d="M9.90161 13.591C10.3065 13.591 10.6348 13.0922 10.6348 12.4768C10.6348 11.8614 10.3065 11.3625 9.90161 11.3625C9.49669 11.3625 9.16844 11.8614 9.16844 12.4768C9.16844 13.0922 9.49669 13.591 9.90161 13.591Z" fill="#352120"/>
<path d="M16.138 13.591C16.5429 13.591 16.8712 13.0922 16.8712 12.4768C16.8712 11.8614 16.5429 11.3625 16.138 11.3625C15.7331 11.3625 15.4048 11.8614 15.4048 12.4768C15.4048 13.0922 15.7331 13.591 16.138 13.591Z" fill="#352120"/>
<path d="M28.605 31.9542H1.25719C1.47638 26.2853 6.80573 26.3086 10.9226 24.9487C11.4895 25.8387 13.5617 28.1932 13.5617 28.1932C13.5617 28.1932 17.7296 25.8362 18.9591 24.9594C23.0867 26.3168 28.3801 26.2935 28.605 31.9542Z" fill="#FCF4E8"/>
<path d="M13.2992 13.8726L11.8366 16.2692L13.7879 16.8222" stroke="#F47D71" stroke-linecap="round" stroke-linejoin="round"/>
<path d="M8.49698 15.5284C10.0836 15.5284 11.3698 14.2422 11.3698 12.6556C11.3698 11.0689 10.0836 9.78271 8.49698 9.78271C6.91035 9.78271 5.62413 11.0689 5.62413 12.6556C5.62413 14.2422 6.91035 15.5284 8.49698 15.5284Z" stroke="#F7EDD2" stroke-linecap="round" stroke-linejoin="round"/>
<path d="M16.6777 15.5492C18.2644 15.5492 19.5506 14.2629 19.5506 12.6763C19.5506 11.0897 18.2644 9.80347 16.6777 9.80347C15.0911 9.80347 13.8049 11.0897 13.8049 12.6763C13.8049 14.2629 15.0911 15.5492 16.6777 15.5492Z" stroke="#F7EDD2" stroke-linecap="round" stroke-linejoin="round"/>
<path d="M11.3937 12.1257H13.8048M19.497 12.1257H21.9082" stroke="#F7EDD2" stroke-linecap="round" stroke-linejoin="round"/>
<path d="M24.2929 13.2539C24.2929 14.7775 23.0962 16.145 21.8068 16.145C20.5175 16.145 19.6281 14.7775 19.6281 13.2539C19.6281 11.7302 20.6724 10.6279 21.9586 10.6279C23.2448 10.6279 24.2929 11.7302 24.2929 13.2539Z" fill="#FEB4A9"/>
<path d="M14.4511 29.8459H12.4494L11.5241 27.1123H16.1524L14.4511 29.8459Z" fill="#A81188"/>
<path d="M18.9107 23.5881L19.5934 25.1716L18.3948 30.4481L13.6348 27.1123L18.9107 23.5881ZM10.9988 24.286L10.1132 25.1962L9.71201 30.1231L13.6348 27.1123L10.9988 24.286Z" fill="white"/>
<path d="M12.4494 29.8459H14.4512L14.7586 31.9541H11.6734L12.4494 29.8459Z" fill="#EA1F46"/>
<path d="M20.9042 31.9543L22.2118 30.9005L20.4891 29.4675L22.6647 28.7526L19.8744 24.5325L24.8724 26.0782C26.0828 26.4534 27.1321 27.2245 27.8517 28.2676C28.6042 29.3493 29.0051 30.6366 29 31.9543H20.9042Z" fill="#352120"/>
<path d="M20.4886 29.4676L22.2119 30.9005L20.9043 31.9543H14.0752L19.5545 24.4324L19.8738 24.5313L22.6641 28.7533L20.4886 29.4676Z" fill="#635347"/>
<path d="M7.91879 29.521L6.0783 30.4482L7.45079 31.9542H0.136719C0.136719 29.2199 1.82226 26.8189 4.26238 26.0781L9.38324 24.6477L6.0783 28.9145L7.91879 29.521Z" fill="#352120"/>
<path d="M12.3362 31.9543H7.45275L6.07774 30.4482L7.91886 29.5217L6.07774 28.9151L9.38331 24.6484L9.88721 24.5085L12.3362 31.9543Z" fill="#635347"/>
</svg>
